<?xml version="1.0" encoding="utf-8"?>
<!-- Generator: Adobe Illustrator 23.0.5, SVG Export Plug-In . SVG Version: 6.00 Build 0)  -->
<svg version="1.1" id="Слой_1" xmlns="http://www.w3.org/2000/svg" xmlns:xlink="http://www.w3.org/1999/xlink" x="0px" y="0px"
	 viewBox="0 0 512 512" style="enable-background:new 0 0 512 512;" xml:space="preserve">
<g>
	<path d="M253.7,15.2c-24-1.9-47.8,10-72.4,19.5C122.2,57.4,79.2,139.5,87,195.7c16,115.9,84.4,204.6,154.1,292.3
		c11.9,15,22.7,9.3,33.4-3.1c35.8-41.4,64.6-87.8,93.2-134.2c26.3-42.7,45.4-87.6,55.9-137.5C442.6,122.8,371.4,19.2,253.7,15.2z
		 M325.8,325.9c-14.2,27.1-33.9,51.3-51.3,76.7c-11,16-21.9,16.1-34.3,0.5c-43.8-55.2-80.4-114.9-100.1-182.4
		c-14.3-48.8-1.3-93.4,40.6-126.6c38.5-30.5,80.5-37.3,124.6-15.7c44.5,21.8,73.9,55.3,71.8,98.6
		C377.2,239.8,348.7,282.1,325.8,325.9z"/>
	<path d="M256.1,129.9c-38,0-59.3,19.5-59.5,54.3c-0.1,36.1,28.5,65.6,62.8,64.8c26.7-0.6,57.1-34,57-62.4
		C316.2,150.1,294.7,129.9,256.1,129.9z"/>
</g>
</svg>
