<?xml version="1.0" encoding="utf-8"?>
<!-- Generator: Adobe Illustrator 23.0.5, SVG Export Plug-In . SVG Version: 6.00 Build 0)  -->
<svg version="1.1" id="Слой_1" xmlns="http://www.w3.org/2000/svg" xmlns:xlink="http://www.w3.org/1999/xlink" x="0px" y="0px"
	 viewBox="0 0 512 512" style="enable-background:new 0 0 512 512;" xml:space="preserve">
<path d="M491.9,120.5c-2.1-44.1-26.8-61.6-71.3-61.7c-31.2-0.1-62.4,0-93.6,0c-80,0-160-0.1-239.9,0.1C46.7,59,26.7,75.8,20.3,114.6
	c-1.7,10.2-2.5,20.6-2.6,31c-0.2,61.1-0.3,122.2,0,183.4c0.1,18.2,0.8,36.3,1.5,54.5c1.7,42.3,36,58.1,69,58.1
	c55.9,0,111.8,0,167.8,0c57.2,0,114.5,0.8,171.7-0.3c33.2-0.6,62.1-16.7,64-53.7C496.1,298.5,496.1,209.4,491.9,120.5z M71.7,121.3
	c3.6-13.6,20.2-11.5,32.3-11.5c50.7-0.3,101.5-0.1,152.2-0.1c46.2,0,92.4,0,138.6,0c5.2,0,10.4-0.3,15.6,0.1
	c11.4,1,26.5-1.3,29.9,12.3c3.1,12.1-9.8,18.9-18.8,24.7c-46,29.2-92.6,57.4-138.5,86.9c-19.3,12.4-34.1,11.2-54.5-1.7
	c-44.4-28-89.5-55-134-82.9C83.8,142.2,68,135.7,71.7,121.3z M409.9,390.7c-51.4,0.2-102.8,0.1-154.1,0.1
	c-50.1,0-100.1,0.2-150.2-0.1c-33.1-0.1-40.7-7.5-40.9-39.9c-0.3-44.9-0.4-89.7,0.1-134.6c0.3-27.2,8.8-31.6,31.7-17.6
	c48.2,29.4,96.6,58.5,144.1,88.9c11.8,7.5,20.4,7.7,31.7,0.5c47.1-29.9,94.5-59.3,142-88.7c24.3-15,32.5-10.8,32.8,17.6
	c0.5,45.5,0.4,91,0,136.6C446.8,383.1,439,390.6,409.9,390.7z"/>
</svg>
