<?xml version="1.0" encoding="utf-8"?>
<!-- Generator: Adobe Illustrator 23.0.5, SVG Export Plug-In . SVG Version: 6.00 Build 0)  -->
<svg version="1.1" id="Слой_1" xmlns="http://www.w3.org/2000/svg" xmlns:xlink="http://www.w3.org/1999/xlink" x="0px" y="0px"
	 viewBox="0 0 512 512" style="enable-background:new 0 0 512 512;" xml:space="preserve">
<path d="M481.2,360.1c-21.4-22.2-43.6-43.6-65.3-65.5c-8.7-8.7-19-12.2-31.2-13.4c-22.5-2-38.5,9-51.4,24.8
	c-13,16-25.4,15.5-42.6,6.3c-27.3-14.7-48-36.2-67.5-59.1c-35.7-41.9-35.3-48.4-0.2-89.7c14.9-17.6,15.4-37.1,2-55.9
	c-19.5-27.5-44.7-49.9-67.8-74c-20.6-21.5-46.9-22.2-69.5-2.2C70.4,46.8,54.5,64,38.3,80.7c-21,21.8-26.6,48.9-17.1,76.1
	c15.7,44.6,38.2,86.5,65.6,124.9c57.5,80.2,129,145,219,187.3c24.3,11.4,46.3,30.9,76.9,25.7c22,4.3,39.2-5.4,54.2-21.3
	c14.1-14.9,28.7-29.3,43.2-43.8C500.7,408.9,501.5,381.1,481.2,360.1z M451.7,404.7c-15.8,16.1-31.9,32.1-48.1,47.8
	c-5.8,5.6-13.7,5.7-21.4,5.9c-24.2-1.6-43.1-16.6-63.8-26.4c-55.6-26.2-104-63-146.9-106.7c-44.1-44.9-77.1-97.4-103.5-154.3
	c-3.4-7.4-8.8-14.3-10.7-22c-3.5-14.2-3.7-28.4,8.3-40.1c14.7-14.3,28.9-29.2,43.3-43.9c8.2-8.4,15.9-8.7,24.5,0.2
	c18.1,18.7,36.5,37.2,55.3,55.2c9.4,9,10.2,16.6,0.3,25.7c-10.1,9.3-19.5,19.3-29.1,29.1c-12.2,12.5-12.3,26.7-5.4,41.7
	c30.5,66.3,81.7,111.6,146.2,143.1c14.7,7.2,28.7,8.6,40.9-5.6c4.9-5.7,11-10.3,16.3-15.6c22.1-22,26.1-22.3,48.1-0.9
	c14.7,14.3,29.1,29.1,43.6,43.6C456.5,388.7,459.8,396.4,451.7,404.7z"/>
</svg>
