<?xml version="1.0" encoding="utf-8"?>
<!-- Generator: Adobe Illustrator 23.0.5, SVG Export Plug-In . SVG Version: 6.00 Build 0)  -->
<svg version="1.1" id="Слой_1" xmlns="http://www.w3.org/2000/svg" xmlns:xlink="http://www.w3.org/1999/xlink" x="0px" y="0px"
	 viewBox="0 0 512 512" style="enable-background:new 0 0 512 512;" xml:space="preserve">
<path d="M289.5,388.1c-0.6,0.5-1,0.9-1.4,1.3c-16.8,15.5-33.7,31-50.5,46.5c-5.1,4.7-10.8,8.6-17.5,10.9
	c-15.1,5.2-30.5,0.7-40.7-11.8c-3.8-4.6-6.5-9.8-8.4-15.4c-11.5-33-23.1-66-34.6-99c-3.6-10.2-7.1-20.4-10.7-30.5
	c-0.4-1.1-0.9-1.6-2.1-2c-27.7-7.9-55.3-15.8-82.9-23.7c-6-1.7-11.6-4.2-16.6-8c-2.7-2.1-5.1-4.4-6.9-7.4
	c-4.4-7.4-4.6-14.8-0.4-22.4c1.9-3.5,4.7-6.3,7.8-8.7c4-3,8.4-5.3,13-7.1c27.4-10.5,54.8-20.9,82.1-31.4
	c109-41.6,218-83.2,327-124.8c6.3-2.4,12.7-3.9,19.4-3.8c15.1,0.3,27.1,10,30.3,24.8c1.5,6.8,1.2,13.5-0.2,20.3
	c-4,19.7-8,39.4-12,59.1c-3.8,18.6-7.5,37.1-11.3,55.7c-3.8,18.6-7.5,37.2-11.3,55.7c-3.9,19.1-7.8,38.2-11.6,57.3
	c-3.7,18-7.3,36.1-10.9,54.1c-3.4,16.6-6.7,33.2-10.1,49.8c-1.3,6.5-3.9,12.6-7.9,18c-8.9,12.2-23.1,17-37.7,13
	c-6.6-1.8-12.5-5.2-17.8-9.4c-15.8-12.8-31.7-25.5-47.5-38.3c-9.1-7.3-18.2-14.6-27.3-21.9C290.5,388.9,290,388.5,289.5,388.1z
	 M246.4,316.9c0.6,0.5,1.1,0.9,1.5,1.3c40.6,32.7,81.2,65.4,121.8,98.1c4.6,3.7,9.3,7.5,13.9,11.2c2.4,2,5.1,3.6,8.2,4.3
	c2.4,0.5,4.5-0.1,6-2c0.7-0.9,1.4-1.8,1.8-2.9c0.7-1.9,1.5-3.9,1.9-5.9c2.6-12.6,5.1-25.2,7.7-37.8c5.4-26.6,10.8-53.3,16.2-79.9
	c4.9-24,9.7-47.9,14.5-71.9c5.1-25,10.2-50.1,15.2-75.1c4.4-21.5,8.7-42.9,13-64.4c0.6-2.8,1.1-5.6,0.8-8.4c-0.3-3.4-1.4-4.3-4.7-4
	c-2.6,0.2-5.1,1-7.6,2c-90.4,34.5-180.8,69-271.1,103.5c-44.9,17.2-89.9,34.3-134.8,51.5c-0.6,0.2-1.1,0.5-1.7,0.7
	c0.6,0.5,1.2,0.7,1.8,0.8c27.3,7.8,54.6,15.6,81.8,23.5c1.3,0.4,2.3,0.3,3.5-0.4c76-38.9,152.1-77.7,228.1-116.5
	c4.4-2.2,8.7-4.5,13.1-6.7c7.3-3.6,16.1-0.4,19.2,7.1c2.5,5.9,1.2,11.3-3.2,16c-46.1,48.9-92.2,97.9-138.2,146.9
	C252.3,310.7,249.4,313.7,246.4,316.9z M316.6,200.8c-2.2,0.7-162.2,82.5-163.1,83.4c12.8,36.6,25.6,73.2,38.4,109.8
	c0.5-0.7,0.7-1.4,0.9-2c6.2-25.1,12.4-50.1,18.5-75.2c0.9-3.7,2.6-6.8,5.2-9.6c32.9-34.9,65.8-69.8,98.7-104.8
	C315.6,202,316,201.5,316.6,200.8z M234,343.4c-1.6,6.3-3.1,12.3-4.6,18.4c-1.5,6.1-3,12.3-4.5,18.4c-1.5,6.1-3,12.2-4.5,18.2
	c-1.5,6.1-3.1,12.1-4.4,18.3c0.1,0.1,0.3,0.1,0.4,0.2c16.9-15.6,33.8-31.1,50.8-46.8C256.1,361.2,245.1,352.4,234,343.4z"/>
</svg>
