<?xml version="1.0" encoding="utf-8"?>
<!-- Generator: Adobe Illustrator 23.0.5, SVG Export Plug-In . SVG Version: 6.00 Build 0)  -->
<svg version="1.1" id="Слой_1" xmlns="http://www.w3.org/2000/svg" xmlns:xlink="http://www.w3.org/1999/xlink" x="0px" y="0px"
	 viewBox="0 0 512 512" style="enable-background:new 0 0 512 512;" xml:space="preserve">
<path d="M257.6,11.2C115.5,6.4,16.5,126.5,11.2,242.2c-7,151.2,118,253.8,233.2,258.6c146.8,6.1,252.7-117.5,257.1-235.1
	C507,119.4,384,5.8,257.6,11.2z M254.3,477.4C133.7,478.1,33,376.2,33.7,253.4C34.3,135.5,134.4,31.7,258.3,32.7
	c117.8,1,222.9,102.1,219.8,221.4C478.1,380.3,380.8,476.8,254.3,477.4z"/>
<path d="M383,308.9c-0.5-0.3-1-0.7-1.5-1.1c-22.2-18-23.7-29-4.8-50.4c11.6-13.2,20.8-27.5,25.5-44.4c2.7-9.7,3.9-19.8-4.9-27.4
	c-9-7.7-69.9-5.6-78.8,2.4c-4.7,4.2-7.6,9.6-9.6,15.5c-1.6,4.6-2.6,9.9-5.5,13.6c-6.8,8.7-6.1,28.3-19.7,25
	c-10.9-2.6-4.5-19.6-5.2-30.2c-1.2-19.4-7.5-28.6-25.1-30c-14.1-1.1-28.4-1.3-42.5,0c-20.8,1.9-27.6,17.3-15.6,33.7
	c5.1,6.9,6.6,14.5,5.3,22.6c-0.4,2.6-3.2,4-5.7,3.1c-7.7-2.8-10.2-9.7-13.2-16.7c-19.1-44.1-19.3-44.1-67.7-43.3
	c-1.8,0-3.7,0-5.5,0.1c-19.3,1.1-26.7,11.5-19.8,29.6c4.6,12,10.6,23.6,16.9,34.9c26,47.1,52.2,93.5,108.5,112.3
	c24.8,8.3,49.2,5.6,65.2-14.1c7-8.6,13.3-5,18.9,0c17.1,15.7,36.9,21.6,55.6,18.3c6.6,0,9,0.1,11.5,0c14.5-0.4,31.6,3.2,37.3-15.6
	C407.8,329.2,396.5,318,383,308.9z M370.8,335.7c-3.8,8.4-14.5,3.4-21.9,4.6c-18.4,3.6-30-8.4-42.8-17.9
	c-24.5-18.3-35.9-16.1-50.6,10.1c-6.5,11.6-17.3,9-26.2,6.9c-29.5-6.8-51.8-24.8-69-49.2c-14.3-20.1-26.8-41.3-36.8-63.9
	c-2.9-6.5-12-15.1-1.2-20.5c9.1-4.6,20.4-4.8,27.8,6.4c8.5,12.8,11.7,28.3,21.9,40.4c5.2,6.2,10.1,12.4,16.7,17
	c16.1,11.2,32,4,33.9-15.9c0.9-9.8,0.5-19.7,0.4-29.6c-0.2-12.2,3.5-20.2,17.7-20.3c14.1-0.1,15.7,8.7,15.6,19.6
	c-0.1,10.5,0,20.9,0.3,31.4c0.2,10.6,6.4,17.2,15.5,20.9c9,3.7,17.2,0.8,23.4-6.2c14-15.6,27.3-31.7,34.5-51.8
	c4.5-12.5,34.4-20.3,43.6-11.4c4.7,4.5,2.1,9.2,0,13.5c-5.9,12.3-13.9,23.1-22.4,33.7c-18.7,23.6-17.3,39.4,4.4,59.4
	c0.9,0.8,2,1.5,2.8,2.4C363.4,321.8,375.2,325.8,370.8,335.7z"/>
</svg>
