<?xml version="1.0" encoding="utf-8"?>
<!-- Generator: Adobe Illustrator 23.0.5, SVG Export Plug-In . SVG Version: 6.00 Build 0)  -->
<svg version="1.1" id="Слой_1" xmlns="http://www.w3.org/2000/svg" xmlns:xlink="http://www.w3.org/1999/xlink" x="0px" y="0px"
	 viewBox="0 0 512 512" style="enable-background:new 0 0 512 512;" xml:space="preserve">
<g>
	<path d="M483.9,138.9c-6.9-28.4-26-45.2-53.1-48.1c-36.7-4.1-72.7-14.4-110.2-11.6c-21.6,1.6-43.5,0.3-71.3,0.3
		c-47.5,0.7-100.8-1.1-154.2,9.9c-45.5,9.4-64.2,20.1-70.7,66.3C14.3,227.9,13,300.5,28.8,372.5c6.2,28.3,25.6,43.7,53.2,48.3
		c42.9,7.1,85.7,13.4,129.6,12.3c70.8-1.8,141.8,3.1,212.2-11c33.1-6.7,53.8-23.4,60.5-56.8c4.6-22.6,7.6-45.2,9.5-68.1
		C498.1,243.8,496.6,191.1,483.9,138.9z M473.3,258.9c-1.9,37.1-7.3,73.7-13.4,110.1c-2.9,17.3-18.8,25.9-36.6,29.1
		c-57.5,10.4-115.4,14.3-174.2,10.9c-52.8,3.2-105.5,0.1-157.8-10.8c-23.7-4.9-36.4-20.8-41.8-44.7c-8.2-36.5-8.4-73.3-9.6-110.1
		c-1.1-34.5,4.8-68.7,12.7-102c4.3-18,22.7-25.3,40.4-28.1c78.6-12.4,158-12.6,237.2-10.1c32.4,1,64.8,6.6,97,11.3
		c17.4,2.5,29.8,14.5,32.9,30.9C467.3,182.7,475.3,220,473.3,258.9z"/>
	<path d="M329.9,243.7c-38.7-22.1-78-43.2-116.7-65.2c-13.5-7.7-16.9-2.2-16.9,10.6c0.1,22.3,0,44.6,0,67c0,21.7-0.3,43.4,0.1,65.1
		c0.3,18.9,3.7,21.2,20.1,12.1c37.8-21,75.4-42.5,112.8-64.3C343.8,260.4,344.1,251.9,329.9,243.7z M262.9,281.2
		c-43.5,23.8-43.6,23.6-43.6-25.9c0-47.8,0.1-47.9,43.5-24.2c12,6.5,29.9,11.4,29.6,26.3C292.2,271,274.3,274.9,262.9,281.2z"/>
</g>
</svg>
