<?xml version="1.0" standalone="no"?>
<!DOCTYPE svg PUBLIC "-//W3C//DTD SVG 20010904//EN"
 "http://www.w3.org/TR/2001/REC-SVG-20010904/DTD/svg10.dtd">
<svg version="1.0" xmlns="http://www.w3.org/2000/svg"
 width="376.000000pt" height="376.000000pt" viewBox="0 0 376.000000 376.000000"
 preserveAspectRatio="xMidYMid meet">
<metadata>
Created by potrace 1.14, written by Peter Selinger 2001-2017
</metadata>
<g transform="translate(0.000000,376.000000) scale(0.100000,-0.100000)"
fill="#000000" stroke="none">
<path d="M1930 3300 c0 -11 -13 -15 -53 -16 -28 -1 -71 -4 -95 -8 -33 -5 -42
-3 -37 6 4 7 0 5 -9 -6 -8 -10 -19 -15 -25 -12 -5 4 -13 1 -16 -5 -4 -5 -13
-8 -21 -5 -7 3 -16 0 -20 -5 -3 -6 -15 -8 -26 -6 -11 3 -21 0 -24 -8 -3 -7
-14 -12 -25 -10 -10 2 -19 0 -19 -4 0 -9 -48 -26 -62 -23 -5 1 -8 -3 -8 -10 0
-6 -3 -8 -7 -5 -3 4 -13 1 -21 -6 -9 -6 -13 -7 -9 -1 3 6 0 11 -8 11 -9 0 -14
-7 -13 -15 2 -8 -3 -17 -11 -20 -8 -3 -11 0 -7 6 5 8 -21 10 -31 2 -2 -2 -7
-3 -12 -4 -5 0 -12 -4 -16 -8 -9 -9 17 -4 34 6 9 6 12 5 9 -5 -2 -7 -15 -16
-29 -20 -13 -4 -19 -8 -14 -9 6 -1 -1 -6 -14 -11 -13 -5 -21 -15 -18 -22 3 -8
-1 -14 -9 -14 -7 0 -11 4 -8 9 12 18 -8 6 -35 -23 -17 -17 -35 -28 -40 -24 -6
3 -11 -1 -11 -9 0 -14 -11 -20 -32 -17 -4 0 -5 -5 -2 -13 3 -8 -4 -16 -17 -19
-13 -4 -20 -9 -17 -13 7 -7 -40 -54 -54 -54 -5 0 -6 -5 -3 -11 5 -7 15 -5 31
6 13 8 24 11 24 5 0 -5 5 -10 11 -10 6 0 8 10 5 23 -3 12 -3 16 0 9 3 -6 10
-9 16 -6 6 4 5 -3 -2 -15 -8 -15 -17 -20 -31 -16 -14 5 -17 2 -13 -8 3 -8 11
-14 17 -12 38 10 57 18 57 27 0 5 -5 6 -12 2 -7 -5 -8 -3 -4 5 5 7 14 10 22 7
8 -3 14 1 14 10 0 9 -5 12 -12 8 -6 -4 -8 -3 -4 4 3 6 15 9 26 7 14 -3 20 2
20 13 1 16 1 16 11 -1 11 -19 3 -41 -13 -31 -5 4 -2 -6 7 -20 12 -18 14 -26 5
-24 -7 2 -15 -3 -18 -11 -3 -9 0 -11 8 -6 9 6 11 4 6 -4 -5 -7 -11 -10 -14 -7
-3 4 -16 -3 -28 -15 -16 -15 -24 -17 -29 -9 -9 14 14 32 28 23 5 -3 7 0 5 8
-3 8 -12 12 -19 10 -8 -2 -20 -4 -27 -4 -8 0 -10 -8 -6 -20 5 -15 3 -19 -9
-14 -8 3 -25 -2 -38 -10 -14 -11 -19 -12 -14 -3 5 8 3 11 -6 8 -8 -3 -15 -10
-15 -16 -1 -7 -3 -15 -4 -19 -1 -5 -2 -11 -1 -15 0 -5 -3 -7 -8 -5 -5 1 -16
-7 -24 -18 -15 -20 -70 -30 -64 -12 4 13 37 18 37 6 0 -6 5 -7 10 -4 17 11 11
24 -10 20 -11 -2 -25 4 -31 13 -10 16 -10 15 -5 -1 3 -11 0 -20 -9 -24 -12 -4
-13 -9 -4 -19 9 -11 6 -16 -12 -23 -13 -5 -18 -10 -10 -10 8 -1 23 6 33 16 10
9 18 11 18 5 0 -6 -9 -17 -20 -25 -11 -8 -17 -17 -13 -20 3 -4 -1 -7 -10 -7
-9 0 -16 -3 -16 -7 3 -19 -2 -33 -11 -33 -5 0 -7 8 -3 18 3 9 3 14 -2 10 -4
-4 -8 -18 -9 -30 -1 -13 -7 -22 -14 -21 -16 4 -15 -10 1 -26 10 -10 8 -11 -6
-5 -12 4 -17 2 -15 -7 2 -8 -2 -13 -9 -12 -8 2 -10 -4 -6 -14 5 -13 2 -15 -13
-9 -15 6 -17 5 -6 -5 16 -17 15 -29 -4 -29 -8 0 -13 4 -9 9 3 5 0 13 -7 17 -7
4 -10 4 -6 -1 4 -4 3 -14 -4 -22 -6 -8 -7 -13 -2 -12 20 4 26 -2 15 -15 -6 -8
-10 -20 -9 -27 2 -9 -6 -13 -22 -12 -14 1 -18 0 -7 -3 17 -5 24 -24 9 -24 -4
0 -21 -39 -36 -87 -16 -49 -31 -95 -34 -103 -3 -8 -4 -18 -4 -22 1 -5 -2 -8
-7 -8 -5 0 -7 -9 -4 -20 3 -11 0 -20 -6 -20 -6 0 -11 -5 -11 -11 0 -5 5 -7 11
-3 8 4 8 1 1 -12 -5 -11 -9 -38 -7 -61 1 -34 -1 -40 -14 -35 -13 5 -14 3 -5
-9 11 -14 13 -115 2 -134 -2 -6 -4 -29 -4 -52 1 -38 -1 -42 -19 -37 -18 5 -18
5 2 -10 15 -11 21 -25 19 -44 -2 -15 0 -37 5 -49 5 -15 5 -23 -2 -23 -6 0 -6
-6 0 -18 7 -13 6 -23 -2 -32 -9 -10 -9 -11 0 -6 6 3 15 1 19 -5 4 -7 3 -9 -4
-5 -6 3 -13 2 -17 -4 -3 -5 0 -10 7 -10 12 0 14 -14 9 -63 -1 -4 -6 -6 -12 -5
-6 2 -14 -4 -16 -12 -3 -12 -2 -12 5 -2 7 10 11 10 22 -2 7 -9 17 -13 23 -9 5
3 7 2 4 -4 -3 -5 1 -29 10 -54 22 -63 26 -99 12 -99 -7 0 -9 10 -7 24 4 19 1
23 -11 18 -14 -5 -14 -3 -2 11 7 9 9 17 4 17 -14 0 -36 -46 -29 -59 4 -6 1
-11 -6 -11 -7 -1 -3 -6 9 -13 12 -7 22 -16 22 -22 1 -15 24 -12 27 3 1 7 0 8
-3 2 -2 -5 -9 -10 -14 -10 -6 0 -7 5 -4 10 3 6 0 12 -7 15 -8 3 -15 17 -16 30
-2 32 6 32 18 -1 8 -20 14 -24 33 -18 12 3 19 3 15 -1 -4 -4 -2 -17 4 -29 7
-11 11 -24 10 -28 -1 -5 2 -8 7 -8 11 0 26 -39 22 -58 -1 -7 4 -11 11 -10 8 2
12 -4 10 -15 -2 -10 3 -16 10 -15 7 2 13 -4 13 -12 0 -8 7 -20 15 -27 8 -7 11
-13 7 -13 -4 0 6 -13 22 -29 27 -26 28 -30 12 -36 -17 -5 -26 -35 -9 -35 4 0
8 7 8 15 0 8 7 15 15 15 12 0 13 -4 6 -19 -11 -19 -5 -31 13 -31 6 0 5 4 -3 9
-7 5 -9 11 -5 13 5 3 17 -2 26 -11 12 -12 14 -21 7 -31 -9 -12 -9 -11 -4 5 5
15 3 17 -6 8 -6 -6 -8 -17 -3 -24 12 -20 12 -50 0 -46 -6 2 -10 11 -8 21 2 10
-4 16 -15 16 -15 0 -16 -2 -3 -10 8 -5 11 -10 5 -10 -5 0 5 -13 24 -29 20 -16
31 -33 27 -39 -10 -17 -26 -15 -20 3 4 8 4 15 1 15 -3 0 -8 -7 -11 -15 -4 -11
3 -19 19 -25 31 -12 33 -30 3 -24 -21 4 -21 4 -3 -5 24 -10 41 2 29 21 -10 15
-13 58 -4 58 9 0 30 -23 30 -33 0 -4 -4 -5 -10 -2 -5 3 -10 1 -10 -5 0 -7 8
-9 19 -5 16 5 18 1 15 -31 -1 -20 -4 -37 -6 -40 -2 -2 -17 3 -32 11 -33 18
-46 19 -46 5 0 -5 7 -10 15 -10 8 0 15 -7 15 -15 0 -13 4 -14 21 -5 20 11 20
11 2 -17 -15 -23 -15 -26 -1 -15 12 10 21 10 42 1 14 -7 23 -16 19 -22 -3 -6
-1 -7 5 -3 6 3 16 1 24 -6 7 -7 22 -15 33 -16 11 -2 21 -8 23 -13 4 -10 42 8
42 20 0 5 -6 9 -12 8 -40 -1 -58 5 -58 19 0 8 -4 13 -9 9 -12 -7 -61 15 -61
27 0 5 -5 6 -11 2 -8 -4 -9 1 -4 17 9 30 24 49 38 49 5 0 2 -10 -9 -22 -17
-21 -16 -21 9 1 15 14 27 20 27 14 0 -5 -9 -18 -20 -28 -11 -10 -20 -23 -19
-29 0 -6 3 -6 6 2 2 6 10 9 15 6 7 -4 8 -2 4 4 -4 7 -3 12 2 12 15 0 22 -28 9
-33 -7 -2 -4 -3 6 -1 9 1 24 -7 32 -19 8 -12 15 -17 15 -13 0 5 -7 18 -17 28
-9 10 -11 18 -5 18 6 0 14 -5 18 -11 4 -8 9 -7 15 2 5 9 7 1 4 -20 -3 -24 -1
-31 7 -23 14 14 17 54 5 69 -10 14 -31 7 -22 -7 3 -4 -6 -7 -19 -6 -20 1 -24
6 -21 33 2 26 -1 31 -16 28 -10 -2 -21 0 -24 6 -4 5 1 9 9 9 9 0 16 4 16 9 0
5 -14 8 -30 6 -28 -4 -29 -2 -19 17 9 16 8 19 -2 13 -7 -5 -10 -4 -6 2 4 6 -4
9 -18 7 -28 -3 -32 8 -10 26 12 10 15 9 15 -4 0 -10 4 -15 9 -11 5 3 19 -7 30
-21 12 -15 21 -23 21 -18 0 4 9 -2 21 -14 11 -12 17 -26 14 -31 -3 -5 -1 -12
5 -16 6 -4 8 -11 4 -16 -3 -6 3 -5 14 2 17 10 23 10 37 -4 9 -10 20 -15 25
-12 4 3 11 -2 14 -11 4 -9 9 -14 13 -11 3 4 19 -3 34 -14 16 -11 29 -17 29
-13 0 4 11 -3 25 -16 14 -13 25 -18 25 -11 0 9 5 7 16 -3 8 -9 20 -14 25 -10
5 3 8 0 7 -8 -2 -8 6 -13 20 -12 12 1 22 -3 22 -8 0 -6 7 -8 15 -5 8 4 17 2
20 -4 4 -5 11 -7 16 -4 5 4 6 -2 2 -12 -5 -14 -4 -16 8 -7 17 12 29 12 49 -1
8 -5 26 -10 40 -12 14 -1 38 -4 53 -6 16 -1 32 -9 36 -16 7 -11 10 -11 14 0 4
10 6 10 6 2 1 -7 6 -13 12 -13 5 0 7 6 3 13 -6 9 -4 9 8 -1 13 -10 17 -10 21
0 4 9 6 10 6 1 1 -7 8 -10 19 -6 14 5 14 3 -3 -11 -19 -16 -19 -17 -1 -12 15
5 17 4 8 -7 -9 -10 -8 -17 0 -25 9 -9 9 -12 0 -12 -7 0 -12 5 -12 11 0 8 -5 8
-15 -1 -10 -9 -19 -9 -27 -2 -9 7 -17 6 -27 -5 -12 -13 -11 -14 7 -9 15 5 22
2 27 -15 5 -16 9 -18 15 -8 5 7 6 17 3 22 -3 5 0 7 8 5 8 -3 13 -12 11 -19 -1
-8 4 -7 12 4 8 11 12 26 8 35 -5 15 -4 16 13 2 17 -14 18 -13 13 2 -4 9 -2 15
5 14 20 -3 37 -17 37 -29 0 -7 -8 -3 -17 8 -13 16 -15 17 -10 2 4 -10 1 -17
-6 -17 -7 0 -18 -9 -25 -20 -7 -11 -8 -20 -3 -20 5 0 12 7 15 16 3 8 11 12 17
8 8 -4 7 -9 -2 -15 -10 -6 -10 -9 -2 -9 6 0 18 8 25 18 14 19 61 26 55 8 -2
-6 -11 -10 -19 -8 -9 1 -22 -5 -29 -15 -13 -15 -12 -15 8 -5 14 8 24 9 28 2 3
-5 12 -10 18 -10 9 0 8 3 -1 8 -9 7 -7 13 9 28 22 19 22 19 15 -6 -4 -17 -1
-15 9 8 14 29 17 31 38 21 12 -7 26 -17 30 -23 5 -6 5 0 2 12 -7 23 -6 23 18
7 14 -9 36 -18 50 -21 23 -4 26 -1 25 27 -1 20 -4 26 -9 17 -7 -10 -9 -10 -9
2 0 12 -2 13 -9 1 -7 -11 -9 -11 -13 0 -3 8 -9 10 -14 5 -5 -5 -4 -11 4 -13
14 -5 16 -23 3 -23 -5 0 -13 10 -16 21 -6 17 -9 19 -16 8 -7 -12 -9 -11 -9 1
0 13 -1 13 -10 0 -9 -13 -10 -13 -10 0 0 12 -2 13 -9 1 -5 -7 -13 -11 -19 -7
-6 3 -13 2 -17 -4 -3 -5 -12 -10 -18 -10 -8 0 -7 3 2 9 7 5 11 13 8 17 -3 5
20 10 51 10 32 1 65 5 75 9 10 4 17 3 17 -5 0 -6 5 -8 13 -3 6 4 31 8 54 8 34
1 41 -2 40 -17 -1 -10 -7 -18 -14 -18 -7 0 -12 3 -11 8 2 4 -1 7 -7 7 -5 0 -9
-4 -7 -8 1 -5 -3 -7 -10 -4 -7 2 -12 10 -10 16 1 7 -2 10 -7 7 -5 -4 -8 -16
-6 -28 5 -25 15 -37 15 -17 1 10 5 8 16 -6 16 -20 16 -20 9 2 -5 18 -3 22 10
17 9 -4 24 1 35 11 11 10 20 13 20 7 0 -6 -4 -14 -10 -17 -15 -10 -12 -19 13
-34 21 -13 21 -13 5 6 -17 18 -17 20 1 35 13 11 22 13 29 6 14 -14 32 -1 25
18 -3 9 0 14 8 12 10 -2 14 9 15 39 0 31 -3 40 -14 36 -10 -4 -11 -8 -1 -13 8
-6 6 -11 -8 -19 -11 -5 -23 -8 -26 -4 -4 3 -12 1 -19 -4 -7 -5 -26 -9 -43 -9
-16 1 -33 -2 -36 -7 -3 -4 -12 -1 -19 8 -11 13 -10 14 4 9 12 -5 15 -2 10 12
-4 14 -3 16 4 5 7 -9 12 -10 16 -2 9 14 26 14 26 0 0 -5 -5 -7 -12 -3 -7 4 -8
3 -4 -4 10 -16 35 -3 31 16 -2 12 5 17 22 18 16 1 23 -2 20 -10 -3 -7 1 -13 8
-13 7 0 12 8 10 18 -2 10 1 22 7 25 7 4 8 2 4 -4 -4 -7 -3 -12 2 -12 5 0 12 9
15 21 3 12 10 18 16 15 5 -4 12 -2 16 4 4 6 11 8 16 5 5 -4 9 -1 9 5 0 7 7 9
15 6 9 -3 18 1 21 9 4 8 13 15 21 15 8 0 11 4 8 10 -3 5 -2 10 4 10 5 0 9 -9
8 -20 -1 -12 -7 -19 -17 -17 -9 1 -14 -5 -14 -15 1 -14 -2 -16 -17 -7 -15 7
-19 7 -17 -3 2 -8 -6 -13 -19 -12 -15 1 -20 -3 -16 -13 5 -12 7 -12 14 -1 5 7
9 9 9 4 0 -5 6 -3 14 3 16 13 49 4 39 -12 -3 -6 -1 -7 5 -3 9 5 9 13 2 26 -13
25 -12 40 1 17 6 -9 15 -15 20 -12 5 4 7 11 4 16 -4 5 -1 9 4 9 19 0 12 -26
-13 -51 -18 -19 -22 -29 -15 -46 5 -15 14 -21 24 -17 8 3 15 8 15 11 0 3 -7 3
-15 -1 -17 -6 -19 2 -6 22 7 11 11 11 24 -2 14 -15 16 -14 22 4 6 19 16 24 41
21 5 0 20 8 32 19 12 12 22 18 22 15 0 -3 12 3 27 12 22 15 26 15 21 3 -4 -11
0 -16 13 -16 14 0 15 3 7 14 -8 9 -8 16 2 25 10 10 11 9 6 -3 -5 -9 -2 -8 7 3
8 9 22 17 31 17 21 0 20 6 -4 37 -11 14 -20 21 -20 16 0 -5 6 -15 13 -22 10
-11 9 -13 -6 -8 -10 4 -16 3 -13 -2 6 -9 -82 -58 -96 -53 -4 1 -8 -3 -8 -9 0
-5 -5 -7 -10 -4 -19 12 10 36 34 29 20 -6 20 -6 2 9 -18 13 -17 14 17 12 20
-1 33 3 30 7 -3 5 -12 7 -20 4 -9 -4 -13 -1 -10 6 2 7 9 12 14 11 6 -1 9 9 7
22 -1 14 2 27 7 31 5 3 9 0 9 -7 0 -6 8 -9 20 -6 12 3 24 -1 30 -11 5 -10 10
-12 10 -5 0 6 -5 15 -10 18 -7 4 -7 13 0 26 6 11 15 17 21 14 20 -13 27 6 13
35 -14 27 -44 33 -44 8 0 -6 6 -5 15 2 10 8 15 9 15 2 0 -6 -9 -16 -20 -22
-12 -6 -19 -19 -17 -32 1 -11 -3 -23 -9 -25 -7 -2 -10 6 -7 24 2 15 4 36 4 45
0 21 34 42 55 34 8 -3 14 -12 14 -19 0 -8 7 -20 15 -27 10 -9 15 -9 15 -1 0 6
-4 11 -10 11 -5 0 -10 7 -10 17 0 14 3 14 23 -3 12 -10 19 -15 15 -10 -4 5 7
20 24 33 18 12 27 23 21 23 -7 0 -15 -5 -18 -11 -5 -7 -14 -3 -27 11 l-20 21
-15 -20 c-8 -12 -19 -19 -24 -15 -6 3 4 17 22 30 32 24 55 32 45 16 -9 -15 9
-31 24 -22 12 8 12 10 -4 10 -11 0 -16 3 -13 7 4 3 3 11 -2 17 -6 7 -3 17 7
26 14 13 15 12 9 -3 -3 -9 -1 -19 6 -23 7 -4 9 -4 5 1 -4 4 0 14 10 21 26 20
37 17 18 -5 -12 -13 -15 -27 -11 -41 7 -22 7 -22 25 5 10 15 21 27 26 28 13 1
37 27 25 27 -5 0 -15 -8 -20 -17 -6 -10 -11 -13 -11 -8 0 6 -9 -1 -20 -15 -12
-15 -20 -20 -20 -11 0 8 7 22 14 30 10 11 12 21 6 31 -8 13 -12 12 -25 -5 -15
-18 -16 -18 -11 -2 3 10 6 21 6 23 0 2 7 4 15 4 8 0 15 5 15 11 0 5 5 7 12 3
8 -5 9 -2 5 9 -3 10 -2 17 2 17 5 0 12 -6 14 -12 3 -7 6 -1 6 14 1 16 10 33
23 42 12 9 18 16 13 16 -5 0 1 9 12 20 12 11 30 33 40 50 10 17 23 28 31 25 7
-2 10 0 7 5 -8 13 4 50 16 50 6 0 7 -4 4 -10 -3 -5 -1 -10 5 -10 6 0 8 10 4
24 -3 13 -1 27 5 31 6 3 9 11 6 16 -4 5 -1 9 4 9 6 0 11 9 11 21 0 14 5 19 14
16 17 -7 15 14 -4 39 -12 16 -12 17 0 7 20 -18 31 -16 23 4 -5 12 -3 14 8 8
11 -7 11 -5 -1 10 -9 11 -10 16 -2 11 7 -4 12 -2 12 4 0 6 6 8 13 4 9 -5 9 -4
0 6 -12 13 -7 43 7 35 4 -2 6 6 5 18 -1 12 5 37 12 56 16 41 16 44 1 35 -7 -4
-8 -3 -4 4 4 7 1 12 -6 12 -7 1 -3 6 10 13 12 7 20 16 16 20 -4 3 1 18 11 33
9 15 11 23 4 19 -9 -6 -11 -4 -6 7 3 9 0 21 -6 28 -8 9 -9 11 -1 7 7 -4 14 2
17 14 4 14 10 18 19 13 8 -4 10 -3 5 2 -5 5 -13 10 -18 10 -22 3 -23 5 -9 14
10 6 11 10 3 10 -7 0 -13 5 -13 11 0 5 4 8 8 5 4 -2 8 6 8 20 0 13 -4 24 -9
24 -5 0 -6 -7 -3 -16 3 -8 2 -12 -4 -9 -6 3 -10 1 -10 -6 0 -8 -5 -8 -16 2
-14 11 -18 10 -30 -6 -16 -22 -18 -39 -4 -30 6 3 13 -1 16 -9 3 -9 10 -16 15
-16 13 0 6 23 -11 37 -17 14 -2 17 19 4 7 -5 11 -13 7 -19 -3 -6 1 -15 10 -20
14 -8 14 -10 1 -15 -9 -3 -21 -16 -28 -28 -10 -19 -9 -21 5 -16 9 4 16 2 16
-3 0 -11 -23 -13 -33 -3 -4 3 -1 16 6 27 11 18 11 23 -4 38 -10 9 -20 14 -22
11 -3 -2 -11 5 -17 17 -7 12 -8 20 -3 17 4 -3 16 6 26 19 17 23 17 24 -2 24
-11 0 -23 5 -26 10 -3 6 -1 10 5 10 7 0 10 7 7 14 -4 11 -1 13 10 9 12 -5 14
-3 7 8 -17 28 -15 51 3 45 10 -3 24 -2 31 3 10 6 10 10 -3 21 -13 11 -15 10
-9 -4 3 -9 1 -16 -6 -16 -6 0 -8 5 -4 11 4 8 -1 9 -17 4 -19 -5 -21 -4 -9 4 8
6 11 11 6 11 -5 0 -3 6 3 14 9 11 9 15 0 18 -9 3 -9 10 1 27 11 21 10 23 -4
18 -9 -4 -16 -2 -16 4 0 6 10 9 23 7 13 -2 21 2 19 10 -1 6 5 12 13 12 21 0
19 -16 -6 -34 -24 -16 -17 -38 9 -30 11 4 9 -1 -7 -14 -20 -16 -21 -20 -7 -25
11 -5 15 -3 10 5 -4 7 -3 8 5 4 6 -4 8 -13 5 -19 -4 -7 2 -4 12 7 14 13 15 20
6 23 -6 3 -10 9 -6 14 3 5 -2 12 -10 15 -9 3 -13 10 -10 16 3 5 11 4 20 -3 10
-8 14 -8 14 0 0 6 -5 11 -11 11 -8 0 -8 4 0 14 10 11 8 16 -9 21 -11 4 -17 11
-14 17 5 7 2 8 -6 3 -8 -5 -11 -3 -8 6 3 8 14 13 24 12 10 -1 13 0 6 3 -10 5
-10 9 0 22 11 15 11 15 -4 4 -9 -7 -18 -9 -20 -5 -3 4 -3 2 -1 -6 2 -8 -2 -11
-12 -8 -8 4 -17 1 -21 -5 -4 -7 -3 -8 4 -4 7 4 12 3 12 -3 0 -5 3 -17 7 -26 5
-15 3 -16 -15 -6 -15 8 -19 18 -16 36 2 15 2 31 -2 37 -7 11 -15 61 -17 103 0
11 -3 22 -7 25 -7 6 -33 99 -34 123 0 9 -3 17 -7 17 -13 0 -18 44 -6 59 10 14
10 14 -4 4 -13 -11 -18 -7 -32 23 -12 24 -13 33 -5 29 7 -4 6 -1 -2 7 -15 12
-70 104 -70 115 0 3 6 0 13 -6 10 -8 14 -7 14 3 0 7 -9 13 -20 12 -11 -1 -25
8 -31 18 -16 29 -29 45 -48 64 -10 9 -18 22 -18 29 0 7 -8 13 -17 13 -9 0 -14
3 -11 6 7 6 -57 72 -92 95 -13 9 -20 20 -16 27 8 14 36 5 32 -11 -1 -7 -1 -9
1 -4 3 4 9 7 14 7 6 0 7 -6 3 -12 -4 -7 -4 -10 1 -6 11 11 36 -12 28 -25 -4
-6 -1 -7 7 -2 7 4 16 2 21 -6 6 -10 8 -8 6 8 0 12 -3 20 -5 18 -9 -8 -43 16
-37 26 4 5 3 8 -2 7 -18 -5 -53 14 -46 25 3 7 -4 3 -16 -8 -14 -12 -25 -16
-29 -8 -4 5 -22 18 -39 27 -18 9 -33 19 -33 22 0 2 9 0 21 -6 11 -7 23 -9 26
-6 3 3 12 -2 20 -10 9 -8 18 -12 22 -9 3 4 -2 11 -12 16 -10 6 -14 15 -10 22
4 7 -2 5 -12 -3 -14 -11 -19 -12 -22 -2 -3 6 -13 12 -24 12 -27 0 -70 30 -62
43 3 5 1 7 -5 3 -15 -9 -63 15 -55 27 4 6 0 8 -9 4 -9 -3 -32 3 -52 14 -20 10
-36 16 -36 13 0 -4 -6 -1 -14 5 -17 14 -128 53 -134 46 -3 -2 -13 0 -24 6 -11
6 -32 13 -46 15 -15 3 -33 11 -41 17 -12 9 -13 9 -7 0 4 -7 3 -13 -3 -13 -5 0
-12 4 -16 9 -3 5 -17 8 -30 5 -16 -3 -25 0 -25 8 0 8 -3 9 -8 3 -10 -13 -44
-16 -35 -2 4 6 1 7 -7 2 -20 -12 -93 -6 -102 8 -6 9 -8 8 -8 -3z m24 -102 c-5
-8 -2 -9 12 -4 10 5 24 8 29 7 6 0 26 -3 45 -5 19 -2 47 -5 63 -5 15 -1 27 -5
27 -9 0 -11 -40 -10 -57 1 -8 5 -11 1 -8 -14 3 -15 0 -19 -10 -15 -9 3 -12 0
-8 -10 4 -11 9 -12 16 -5 19 19 31 12 14 -7 -10 -10 -17 -22 -17 -26 0 -4 12
6 26 21 16 17 24 21 20 11 -4 -13 -1 -15 11 -11 12 5 14 3 8 -8 -7 -11 -5 -11
10 1 17 14 18 13 13 -8 -4 -12 -2 -20 3 -16 5 3 9 12 9 20 0 8 5 12 10 9 6 -4
8 -11 4 -16 -3 -5 0 -8 8 -7 7 2 12 -4 10 -12 -3 -12 -1 -12 9 -3 10 10 16 10
28 0 10 -8 13 -9 8 0 -4 7 1 14 13 18 17 5 29 25 16 25 -2 0 -12 3 -20 6 -12
4 -15 2 -10 -9 3 -8 1 -18 -5 -22 -7 -4 -8 1 -5 12 6 15 4 15 -10 -2 -15 -19
-16 -19 -9 -1 5 16 3 18 -13 13 -14 -6 -13 -2 6 14 22 18 22 19 3 10 -16 -8
-24 -8 -29 1 -4 7 -3 8 4 4 7 -4 12 -2 12 3 0 14 -13 14 -28 -1 -9 -9 -12 -9
-12 2 0 9 -5 8 -15 -6 -14 -17 -14 -17 -3 10 7 15 14 24 16 18 2 -6 10 -8 18
-5 8 3 20 1 27 -5 6 -5 20 -8 30 -7 9 2 14 -1 11 -7 -3 -5 0 -9 7 -7 24 3 43
-1 36 -7 -3 -4 -2 -15 4 -26 13 -24 2 -43 -17 -27 -11 9 -14 8 -14 -4 0 -10 7
-15 20 -12 13 3 20 -2 21 -13 0 -9 5 -4 9 12 6 17 5 36 0 47 -6 10 -10 20 -10
22 0 5 26 2 40 -3 3 -1 8 -2 11 -2 13 2 -4 -40 -17 -45 -19 -7 -18 -43 1 -43
8 0 15 -4 15 -10 0 -5 7 -10 16 -10 8 0 12 -4 9 -10 -3 -6 1 -7 9 -4 9 3 16 2
16 -4 0 -5 7 -13 16 -16 8 -3 12 -2 9 4 -3 6 -1 10 4 10 6 0 11 -5 11 -11 0
-5 4 -8 9 -4 6 3 8 -6 5 -22 l-5 -27 21 24 21 24 -5 -26 c-3 -20 -1 -25 10
-21 8 3 14 0 14 -6 0 -6 7 -11 15 -11 8 0 15 -7 15 -15 0 -8 4 -15 10 -15 5 0
20 -11 33 -24 14 -14 28 -22 31 -19 3 4 6 1 6 -6 0 -6 15 -27 33 -46 52 -55
58 -65 51 -77 -4 -6 -3 -8 3 -5 9 6 53 -35 53 -49 0 -3 11 -21 24 -41 14 -20
22 -43 19 -52 -4 -9 -3 -13 2 -9 15 14 85 -144 77 -174 -1 -5 3 -8 8 -8 6 0
10 -13 10 -30 0 -17 5 -30 13 -30 9 0 9 -2 -1 -9 -11 -6 -10 -10 5 -16 17 -7
17 -8 -2 -15 -18 -8 -18 -9 -2 -9 10 -1 15 -6 12 -11 -4 -6 -10 -8 -15 -5 -5
3 -11 1 -15 -4 -3 -6 4 -8 16 -6 14 3 19 0 16 -9 -3 -8 -3 -17 1 -20 11 -11
12 -45 2 -51 -6 -3 -10 -12 -10 -18 0 -7 4 -6 11 3 9 12 10 11 6 -7 -3 -12 0
-24 6 -26 7 -2 7 -13 -1 -35 -6 -19 -7 -30 -2 -27 14 9 12 -9 -2 -24 -7 -8 -8
-11 -2 -8 6 3 11 0 11 -8 0 -18 -9 -19 -27 -2 -8 6 -7 3 2 -8 16 -19 16 -40 5
-157 -1 -13 -8 -16 -24 -13 -13 2 -21 0 -18 -6 4 -5 10 -7 15 -4 5 3 11 2 14
-3 7 -11 -19 -84 -27 -77 -4 3 -3 0 2 -7 7 -7 6 -18 -2 -32 -12 -23 -14 -28
-16 -52 0 -9 -6 -12 -13 -8 -7 5 -8 3 -3 -5 4 -8 -2 -25 -15 -43 -13 -17 -17
-27 -9 -23 7 5 4 -5 -8 -21 -11 -16 -24 -39 -27 -51 -7 -22 -16 -26 -58 -26
-10 0 -15 -3 -13 -8 3 -4 14 -6 25 -4 23 4 27 -13 5 -21 -8 -4 -12 -11 -8 -17
4 -6 0 -8 -10 -4 -10 4 -14 2 -11 -7 6 -17 -35 -68 -48 -60 -7 5 -8 2 -3 -5 5
-8 -14 -34 -54 -72 -56 -55 -67 -61 -62 -35 1 5 -5 4 -13 -4 -18 -14 -22 -25
-6 -15 6 3 10 2 10 -3 0 -12 -105 -92 -120 -92 -5 0 -10 -5 -10 -11 0 -6 -7
-8 -16 -5 -8 3 -12 2 -9 -4 3 -6 -1 -10 -10 -10 -10 0 -13 5 -9 12 4 7 3 8 -4
4 -6 -4 -9 -13 -5 -21 4 -11 1 -13 -11 -9 -9 3 -16 2 -16 -4 0 -6 -12 -15 -27
-21 -16 -6 -43 -17 -62 -26 -30 -13 -32 -13 -21 0 11 13 10 14 -5 9 -14 -6
-16 -4 -10 7 5 8 4 11 -1 6 -5 -5 -9 -16 -9 -24 0 -14 -16 -22 -52 -25 -7 -1
-13 -5 -13 -10 0 -4 -4 -8 -10 -8 -5 0 -7 8 -4 17 3 10 -2 7 -10 -7 -10 -16
-15 -19 -16 -10 0 13 -1 13 -10 0 -5 -8 -10 -12 -10 -9 0 4 -16 3 -35 -1 -21
-5 -33 -4 -29 1 3 5 0 8 -8 7 -7 -2 -12 3 -10 10 1 8 -2 11 -8 7 -8 -5 -7 -11
1 -21 6 -8 9 -18 5 -21 -4 -4 -11 -1 -15 6 -6 9 -11 10 -15 2 -4 -6 -14 -11
-22 -11 -10 0 -12 5 -8 13 6 9 4 9 -8 -1 -8 -7 -24 -9 -33 -5 -14 5 -16 3 -10
-7 5 -9 4 -11 -4 -6 -6 4 -9 13 -5 19 3 7 -1 4 -10 -7 -8 -10 -19 -15 -24 -12
-6 3 -29 7 -51 8 -23 1 -41 5 -41 10 0 4 -7 8 -15 8 -7 0 -19 8 -24 18 -6 9
-11 12 -11 5 0 -6 10 -19 23 -28 20 -15 20 -16 2 -13 -11 2 -27 13 -36 26 -9
13 -20 22 -24 20 -3 -2 -12 8 -19 21 -11 20 -14 21 -19 7 -4 -10 -3 -15 2 -12
5 3 12 -1 15 -10 4 -9 9 -14 13 -10 3 3 13 -3 21 -15 8 -11 11 -23 8 -26 -3
-4 -6 -1 -6 6 0 8 -7 10 -20 6 -14 -4 -20 -2 -20 8 0 8 -7 17 -15 21 -13 5
-14 2 -4 -17 11 -20 11 -21 -4 -8 -10 7 -17 10 -17 6 0 -4 -7 -1 -17 6 -9 8
-19 14 -22 14 -3 0 -5 6 -4 13 0 8 -8 23 -20 35 -13 13 -18 15 -15 5 4 -9 1
-22 -5 -29 -10 -11 -9 -11 5 -1 11 9 18 10 23 2 3 -5 1 -10 -5 -10 -6 0 -8 -5
-4 -12 8 -13 -11 -3 -36 18 -15 12 -19 14 -41 14 -8 0 -7 5 1 15 19 23 -1 40
-29 26 -19 -11 -25 -8 -22 11 0 5 -6 8 -14 8 -8 0 -15 5 -15 10 0 6 -7 10 -15
10 -7 0 -18 6 -22 13 -4 8 -17 19 -28 26 -19 11 -19 11 -1 9 10 -2 20 3 22 10
1 7 0 8 -2 3 -3 -6 -13 -7 -22 -4 -30 11 -152 147 -152 170 0 7 -4 13 -10 13
-5 0 -10 9 -10 21 0 11 -4 17 -10 14 -5 -3 -11 -1 -11 4 -1 6 -2 16 -3 21 0 6
-6 14 -11 18 -6 4 -19 27 -29 52 -10 25 -27 65 -38 89 -10 24 -17 46 -14 49 4
3 0 15 -7 26 -7 12 -12 31 -11 44 1 12 -3 22 -7 22 -5 0 -9 5 -9 11 0 5 4 8 9
4 5 -3 13 -1 16 5 4 6 1 9 -7 8 -7 -2 -13 6 -13 17 -1 11 -4 25 -7 30 -3 6 -5
27 -4 48 1 20 -1 37 -4 37 -4 0 -6 29 -6 65 1 36 3 65 6 65 3 0 6 27 7 61 1
45 6 64 20 75 10 9 13 13 6 9 -9 -4 -11 5 -9 30 2 20 6 38 10 42 3 3 6 15 6
25 0 11 5 16 10 13 7 -4 9 3 6 20 -3 17 0 28 10 32 8 3 14 9 14 15 0 5 -5 6
-12 2 -7 -4 -8 -3 -4 5 4 6 12 9 17 5 6 -3 10 0 8 7 -3 26 1 40 10 34 5 -3 12
-1 16 5 3 5 -1 10 -10 10 -13 0 -13 2 -3 14 11 11 14 11 24 -2 9 -12 13 -12
19 -2 6 9 4 11 -5 5 -10 -6 -12 -4 -7 8 5 13 1 17 -16 18 l-22 0 23 10 c13 5
20 13 17 19 -3 6 1 13 9 16 9 3 13 10 10 15 -3 5 -1 9 5 9 5 0 13 9 16 20 4
11 10 18 14 16 4 -3 13 5 20 17 11 18 11 20 0 10 -25 -24 -28 -13 -3 12 14 14
29 25 34 25 6 0 9 3 9 8 -3 18 2 32 11 32 6 0 24 14 40 30 17 18 35 28 42 24
7 -5 9 -2 5 9 -4 12 -2 14 10 10 11 -4 14 -2 9 5 -4 7 -5 12 -2 12 2 0 13 3
23 6 15 5 15 4 3 -5 -11 -8 -11 -11 -2 -11 7 0 15 7 18 15 5 12 9 13 20 4 12
-9 13 -9 9 4 -4 8 -1 18 6 23 7 4 10 3 6 -3 -3 -5 0 -10 8 -10 11 0 12 5 4 20
-15 26 7 51 22 25 14 -25 33 -23 19 1 -13 26 -13 31 5 31 8 0 15 5 15 10 0 6
11 8 25 6 13 -3 28 0 31 6 4 6 3 8 -2 5 -6 -3 -16 -2 -23 2 -8 6 -2 10 19 14
18 4 29 11 25 17 -4 6 -11 8 -16 4 -5 -3 -17 0 -26 8 -14 11 -16 11 -11 -3 5
-12 1 -15 -19 -13 -18 2 -23 -1 -19 -12 4 -11 0 -10 -18 3 -25 19 -28 43 -7
81 6 12 9 22 6 22 -3 0 -7 0 -10 0 -3 0 -5 -3 -6 -7 -2 -22 -22 -31 -45 -23
-13 5 -23 6 -23 2 5 -30 -2 -34 -23 -16 -13 10 -17 12 -10 4 17 -20 15 -35 -3
-20 -8 7 -15 9 -16 4 0 -5 -5 0 -10 11 l-9 20 3 -20 c2 -11 9 -19 15 -17 7 1
12 -5 12 -13 0 -9 -6 -12 -17 -8 -10 4 -14 2 -10 -4 6 -10 -4 -11 -31 -4 -2 1
0 7 5 14 9 14 12 57 3 57 -3 0 -11 10 -19 23 l-14 22 25 -22 c23 -22 25 -22
48 -6 14 9 28 22 32 27 4 6 8 7 8 3 0 -4 6 -2 14 5 11 10 11 16 2 28 -9 12 -8
13 4 4 17 -13 52 -15 44 -2 -3 4 2 8 11 8 9 0 14 4 11 9 -4 5 2 8 11 7 10 -2
21 1 24 6 3 5 16 11 29 13 13 2 27 10 32 17 7 12 12 4 9 -15 -1 -5 3 -6 8 -2
6 3 8 12 4 20 -3 11 -1 13 10 10 8 -4 21 0 28 7 8 7 21 13 29 13 8 -1 21 4 29
9 12 9 13 8 7 -3 -6 -9 0 -8 17 4 26 17 36 12 32 -18 -2 -9 1 -15 5 -12 5 3 7
14 5 25 -3 15 2 20 16 20 13 0 18 -5 14 -12 -4 -7 0 -5 7 4 16 19 98 31 98 14
0 -8 2 -8 8 0 4 6 15 10 26 8 10 -1 28 1 40 6 28 12 28 12 20 -2z m220 -59 c3
-3 -5 -5 -19 -5 -13 0 -22 3 -19 7 4 8 30 6 38 -2z m212 -29 c17 4 113 -44
107 -53 -3 -4 1 -7 8 -5 21 4 141 -81 133 -94 -4 -7 -3 -8 4 -4 13 8 75 -48
65 -58 -4 -4 0 -4 10 0 12 4 17 1 17 -10 0 -9 4 -16 9 -16 6 0 24 -15 41 -32
41 -44 164 -227 157 -235 -3 -3 1 -12 9 -20 8 -9 13 -22 10 -30 -3 -8 -2 -12
3 -9 5 3 12 -1 15 -10 4 -10 2 -13 -7 -9 -6 4 -5 1 3 -7 8 -7 17 -22 18 -33 2
-11 9 -26 15 -34 10 -11 7 -13 -13 -7 -25 7 -24 6 2 -9 18 -10 26 -21 23 -35
-2 -11 0 -20 4 -20 8 0 10 -9 13 -60 1 -16 6 -30 12 -30 6 0 4 -5 -4 -10 -10
-6 -11 -10 -2 -10 6 0 12 -9 12 -20 0 -11 -6 -20 -12 -21 -7 0 -4 -4 7 -9 l20
-9 -20 0 c-16 -1 -17 -3 -5 -11 19 -12 26 -135 7 -123 -9 5 -9 3 -1 -8 6 -8
10 -25 9 -39 -2 -14 -4 -42 -6 -62 -2 -21 -6 -38 -10 -38 -3 0 -6 -10 -6 -22
1 -13 -2 -44 -7 -70 -5 -36 -12 -48 -24 -48 -10 0 -13 3 -7 8 6 4 11 21 12 37
1 17 4 47 5 67 2 21 5 38 8 38 3 0 5 25 4 55 0 30 3 55 9 55 6 0 6 5 0 13 -14
19 -10 92 5 90 6 -2 12 2 12 8 0 6 -7 9 -15 6 -8 -4 -17 -2 -20 3 -4 6 -1 10
5 10 6 0 8 5 5 10 -4 6 -8 23 -11 38 -3 15 -7 35 -10 45 -3 10 0 17 8 17 9 0
10 2 2 8 -7 4 -19 31 -28 61 -19 65 -19 64 -3 56 6 -4 4 0 -5 8 -22 17 -40 64
-28 72 5 3 11 -5 13 -17 5 -21 5 -20 4 2 -1 14 -8 26 -14 26 -26 3 -28 5 -13
14 12 8 12 10 -5 10 -17 0 -17 2 -5 10 13 8 12 10 -2 10 -11 0 -18 8 -18 21 0
11 -5 17 -10 14 -6 -4 -9 -3 -8 2 3 11 -39 90 -52 98 -6 4 -8 11 -5 16 4 5 1
9 -5 9 -7 0 -10 7 -6 15 3 8 1 14 -5 12 -6 -1 -16 7 -22 18 -7 11 -18 24 -25
28 -7 5 -10 12 -7 18 4 5 -1 9 -9 9 -9 0 -16 7 -16 16 0 14 2 15 18 3 15 -13
16 -12 3 3 -7 10 -17 16 -21 13 -5 -3 -11 -1 -15 5 -4 6 -12 7 -18 4 -7 -4 -9
-4 -5 0 4 5 -4 19 -18 33 -13 13 -21 29 -18 35 4 7 2 8 -4 4 -7 -4 -22 3 -35
16 -13 13 -35 29 -50 37 -14 8 -24 18 -21 23 3 4 -2 8 -10 8 -9 0 -16 5 -16
11 0 6 -9 9 -20 6 -11 -3 -18 -1 -15 3 3 5 1 11 -4 14 -5 4 -12 2 -16 -4 -3
-5 -11 -10 -18 -10 -6 0 -2 7 9 15 14 11 15 15 4 14 -30 -3 -40 1 -40 16 0 9
-9 15 -24 15 -14 0 -28 5 -31 10 -4 6 -11 8 -16 5 -5 -3 -6 1 -2 10 4 12 8 13
13 5 4 -6 11 -11 16 -10z m-28 -27 c-10 -2 -18 -9 -18 -15 0 -6 -3 -9 -6 -5
-10 10 6 27 24 26 15 -1 15 -2 0 -6z m24 -32 c-2 -9 3 -11 13 -7 9 3 13 2 10
-4 -3 -6 -1 -10 6 -10 7 0 10 -3 7 -6 -10 -10 -49 16 -42 28 5 7 1 9 -9 5 -10
-3 -17 -2 -17 4 0 6 8 9 18 7 9 -2 16 -10 14 -17z m-1051 -8 c13 -16 12 -17
-3 -4 -10 7 -18 15 -18 17 0 8 8 3 21 -13z m-147 -85 c-5 -8 -1 -9 12 -4 14 5
16 4 7 -5 -6 -6 -16 -8 -22 -5 -14 9 -14 26 0 26 5 0 7 -5 3 -12z m241 -18 c3
-5 1 -10 -4 -10 -6 0 -11 5 -11 10 0 6 2 10 4 10 3 0 8 -4 11 -10z m1142 -15
c0 -8 -4 -15 -9 -15 -10 0 -11 14 -1 23 9 10 10 9 10 -8z m-1147 -11 c0 -2 -7
-4 -15 -4 -8 0 -15 4 -15 10 0 5 7 7 15 4 8 -4 15 -8 15 -10z m1195 6 c3 -6
-1 -7 -9 -4 -18 7 -21 14 -7 14 6 0 13 -4 16 -10z m-1249 -37 c-3 -4 -6 -1 -6
6 0 7 -4 9 -10 6 -6 -4 -7 1 -3 11 6 15 7 15 15 -1 6 -9 7 -19 4 -22z m48 -12
c-2 -3 -12 3 -22 13 -16 17 -16 18 5 5 12 -7 20 -15 17 -18z m26 19 c8 -5 12
-11 10 -14 -3 -2 -14 2 -24 10 -22 15 -10 19 14 4z m-110 -45 c0 -8 -5 -17
-12 -21 -7 -4 -8 -3 -4 5 4 6 2 19 -5 27 -10 12 -9 13 5 8 9 -3 16 -12 16 -19z
m66 13 c4 -7 3 -8 -5 -4 -6 4 -18 2 -26 -4 -9 -8 -15 -8 -15 -2 0 9 15 19 32
21 4 1 10 -4 14 -11z m-97 -22 c-2 -2 -15 -9 -29 -15 -24 -11 -24 -11 -6 3 16
13 49 24 35 12z m-121 -33 c-13 -16 -22 -17 -12 -1 5 8 2 9 -12 4 -39 -16 -48
-17 -24 -3 31 19 64 19 48 0z m227 -3 c-3 -5 -12 -10 -18 -10 -7 0 -6 4 3 10
19 12 23 12 15 0z m-180 -9 c3 -5 2 -12 -3 -15 -5 -3 -9 1 -9 9 0 17 3 19 12
6z m-88 -26 c-19 -19 -23 -19 -30 -1 -4 10 -1 13 7 10 8 -3 17 0 21 6 4 6 9 9
12 6 3 -3 -2 -12 -10 -21z m-32 -24 c3 -5 2 -12 -3 -15 -5 -3 -9 1 -9 9 0 17
3 19 12 6z m-75 -81 c0 -5 -5 -10 -11 -10 -5 0 -7 5 -4 10 3 6 8 10 11 10 2 0
4 -4 4 -10z m-35 -20 c-3 -5 -12 -10 -18 -10 -7 0 -6 4 3 10 19 12 23 12 15 0z
m2180 -480 c3 -6 -1 -7 -9 -4 -18 7 -21 14 -7 14 6 0 13 -4 16 -10z m-2358
-190 c-3 -22 -2 -40 2 -40 4 0 8 -6 8 -14 0 -8 -8 -11 -20 -8 -10 3 -15 8 -10
11 4 3 8 22 8 41 0 37 3 50 12 50 3 0 3 -18 0 -40z m8 -128 c-2 -15 2 -35 7
-46 8 -14 7 -17 -3 -11 -9 6 -10 3 -5 -11 4 -10 10 -28 12 -39 2 -11 7 -31 10
-45 3 -14 6 -33 6 -42 -1 -10 4 -18 10 -18 5 0 8 -6 5 -14 -3 -7 1 -25 8 -39
11 -21 11 -26 0 -31 -9 -3 -12 0 -8 10 3 7 0 14 -7 14 -6 0 -10 6 -7 13 2 6 0
23 -5 37 -9 23 -15 46 -22 77 -1 7 -5 16 -9 19 -4 4 -2 13 4 21 9 10 7 13 -7
14 -11 0 -14 3 -6 6 6 2 9 10 5 16 -4 6 -8 38 -9 71 -1 51 0 57 11 42 7 -9 12
-29 10 -44z m2315 -2 c0 -5 -4 -10 -10 -10 -5 0 -10 5 -10 10 0 6 5 10 10 10
6 0 10 -4 10 -10z m30 -20 c0 -5 -4 -10 -10 -10 -5 0 -10 5 -10 10 0 6 5 10
10 10 6 0 10 -4 10 -10z m-33 -16 c-3 -3 -12 -4 -19 -1 -8 3 -5 6 6 6 11 1 17
-2 13 -5z m-137 -39 c-6 -8 -9 -19 -5 -25 3 -5 -1 -10 -10 -10 -12 0 -14 4 -6
19 6 10 7 21 4 25 -3 3 2 6 12 6 14 0 15 -3 5 -15z m130 -5 c0 -5 -2 -10 -4
-10 -3 0 -8 5 -11 10 -3 6 -1 10 4 10 6 0 11 -4 11 -10z m55 -8 c-3 -3 -11 0
-18 7 -9 10 -8 11 6 5 10 -3 15 -9 12 -12z m-22 -25 c3 -8 -1 -14 -8 -14 -7 0
-11 6 -8 14 3 7 6 13 8 13 2 0 5 -6 8 -13z m47 9 c0 -3 -4 -8 -10 -11 -5 -3
-10 -1 -10 4 0 6 5 11 10 11 6 0 10 -2 10 -4z m-117 -24 c-10 -10 -20 -17 -22
-16 -6 5 20 34 30 34 5 0 1 -8 -8 -18z m-108 -2 c-3 -5 -8 -20 -10 -31 -5 -26
-13 -35 -22 -25 -4 4 -3 10 2 14 6 4 10 13 11 20 2 27 4 32 15 32 5 0 7 -4 4
-10z m143 -9 c-2 -18 3 -24 11 -13 7 11 9 11 14 0 3 -10 -3 -14 -19 -14 -13 0
-21 2 -19 5 3 2 0 9 -5 16 -7 8 -5 12 5 12 7 0 14 -3 13 -6z m-61 -46 c0 -8
-5 -11 -10 -8 -6 4 -8 0 -4 -10 3 -10 2 -17 -3 -17 -14 0 -12 24 2 38 15 15
15 15 15 -3z m84 -9 c14 8 11 -2 -4 -14 -10 -8 -13 -6 -14 11 0 12 1 16 4 9 3
-6 9 -10 14 -6z m-210 -34 c-6 -11 -7 -23 -3 -27 4 -5 2 -5 -5 -1 -9 5 -10 13
-1 31 6 14 13 23 15 21 3 -2 0 -13 -6 -24z m239 14 c0 -2 -8 -10 -17 -17 -16
-13 -17 -12 -4 4 13 16 21 21 21 13z m-133 -31 c0 -8 -4 -15 -9 -15 -5 0 -6
-4 -3 -10 3 -5 1 -10 -5 -10 -6 0 -8 -5 -4 -12 4 -7 3 -8 -4 -4 -8 5 -11 0 -8
-16 3 -13 5 -23 6 -23 1 0 3 -8 5 -18 2 -11 0 -16 -3 -12 -4 4 -7 12 -7 18 0
5 -6 12 -14 15 -8 3 -11 0 -7 -6 9 -14 -14 -63 -27 -55 -5 3 -6 -3 -2 -16 6
-20 -1 -26 -31 -22 -6 1 -19 -8 -29 -19 -10 -11 -15 -20 -10 -20 4 0 14 8 21
18 10 13 15 14 24 5 9 -8 7 -14 -9 -23 -12 -6 -19 -15 -16 -19 7 -13 -23 -34
-40 -28 -19 8 -26 -5 -14 -23 6 -10 9 -11 9 -2 0 6 5 12 10 12 6 0 5 -8 -2
-20 -7 -11 -15 -15 -16 -10 -2 6 -12 -4 -22 -22 -10 -18 -24 -32 -30 -30 -8 2
-10 -3 -6 -13 3 -9 2 -13 -3 -10 -6 3 -14 -3 -20 -12 -6 -10 -11 -13 -11 -6 0
6 5 15 10 18 6 3 10 11 10 17 0 6 -9 3 -19 -6 -12 -11 -17 -25 -14 -34 7 -18
5 -17 -17 12 -8 11 -10 17 -5 14 6 -3 15 0 22 7 10 10 9 14 -2 18 -7 3 -21 -3
-30 -13 -16 -18 -16 -20 4 -41 11 -12 19 -25 16 -27 -2 -3 -14 6 -25 19 -21
23 -21 23 -15 2 7 -27 -25 -49 -43 -31 -9 9 -12 6 -12 -13 0 -18 -2 -21 -9 -9
-6 8 -8 17 -6 20 2 4 -2 7 -10 7 -11 0 -12 -4 -4 -14 6 -7 8 -13 4 -13 -4 0
-1 -8 6 -17 8 -10 9 -14 2 -10 -6 4 -14 3 -18 -3 -4 -6 -11 -8 -16 -5 -5 4 -9
1 -9 -5 0 -6 -5 -8 -11 -4 -8 4 -7 9 2 14 7 5 14 16 15 24 1 9 -2 14 -7 10 -5
-3 -6 -10 -3 -16 4 -6 -2 -8 -17 -4 -13 3 -18 3 -10 0 11 -5 8 -10 -10 -21
-23 -13 -23 -14 -1 -8 13 4 22 2 22 -4 0 -6 -6 -11 -14 -11 -7 0 -20 -10 -28
-22 -18 -26 -42 -16 -32 14 6 21 6 21 -17 -1 -12 -11 -27 -21 -31 -21 -5 0 -6
-5 -3 -11 5 -6 11 -4 19 7 10 13 15 14 20 5 8 -12 1 -26 -12 -26 -4 0 -16 -8
-27 -18 -11 -9 -23 -17 -27 -17 -5 0 -24 -9 -44 -20 -19 -11 -39 -18 -44 -15
-4 2 -13 -2 -20 -10 -7 -8 -16 -13 -20 -10 -5 3 -11 1 -14 -4 -3 -5 -19 -7
-36 -6 -16 1 -30 -2 -30 -7 0 -5 -9 -7 -19 -3 -11 3 -22 1 -26 -5 -5 -8 -11
-8 -21 1 -8 6 -14 8 -14 3 0 -5 -27 -10 -60 -10 -67 -2 -72 2 -20 11 32 6 61
12 68 14 1 1 5 1 8 0 4 0 11 5 15 13 7 10 9 10 9 0 0 -9 7 -8 26 5 25 16 27
16 41 -3 15 -19 15 -18 10 3 -3 15 -1 20 9 16 8 -3 14 0 14 6 0 9 5 9 20 1 11
-6 20 -7 20 -3 0 4 4 2 9 -5 7 -11 9 -11 14 2 3 8 1 18 -5 22 -6 4 -8 3 -4 -4
7 -12 -20 -10 -31 3 -4 4 -3 5 4 1 6 -3 14 -2 17 3 3 5 15 7 26 4 11 -3 18 -9
15 -13 -3 -5 0 -12 6 -16 8 -5 9 -3 4 6 -6 9 -4 11 5 5 8 -5 11 -4 6 3 -4 7 1
10 13 7 14 -2 18 1 15 10 -4 9 2 13 19 11 19 -2 24 1 20 13 -4 14 -3 14 6 1 6
-8 11 -10 11 -4 0 19 -13 24 -28 12 -16 -14 -42 -20 -42 -10 0 4 15 14 33 21
17 8 52 29 77 47 25 17 51 29 58 27 7 -3 10 1 6 10 -3 10 3 17 21 21 16 4 23
11 19 18 -4 7 -3 8 4 4 7 -4 12 -2 12 4 0 7 7 9 16 6 12 -4 15 -2 10 9 -3 8
-2 14 2 12 4 -1 21 13 39 31 22 23 33 29 39 21 5 -9 11 -7 20 5 7 10 18 15 24
11 6 -4 20 1 30 10 16 15 22 15 35 5 18 -15 18 -11 5 25 -9 24 -8 25 10 15 14
-7 20 -7 20 0 0 5 -6 10 -12 11 -10 0 -10 2 0 6 6 2 12 10 12 17 0 8 12 12 30
11 16 -1 27 2 24 7 -4 5 -12 7 -20 4 -9 -3 -11 0 -7 11 5 12 3 14 -8 8 -8 -5
-11 -5 -6 1 5 5 12 9 15 9 4 0 17 9 29 20 17 14 20 22 11 32 -8 11 -7 12 6 7
10 -4 18 0 22 10 3 9 12 16 19 16 8 0 17 5 21 12 5 7 2 9 -9 5 -8 -3 -18 0
-20 7 -3 8 1 13 11 12 9 0 16 5 15 12 -2 6 2 12 7 12 6 0 10 7 10 15 0 8 5 15
12 15 6 0 8 3 5 7 -4 3 0 15 10 25 20 22 20 22 20 3z m97 -1 c3 -8 2 -12 -4
-9 -6 3 -10 10 -10 16 0 14 7 11 14 -7z m-2247 -69 c0 -17 -13 -20 -21 -6 -4
5 0 12 6 14 7 3 13 6 14 6 0 1 1 -6 1 -14z m-167 -5 c0 -5 -5 -10 -11 -10 -5
0 -7 5 -4 10 3 6 8 10 11 10 2 0 4 -4 4 -10z m2200 2 c0 -5 -7 -9 -15 -9 -8 0
-12 4 -9 9 3 4 9 8 15 8 5 0 9 -4 9 -8z m-2016 -53 c-8 -13 -24 -1 -24 18 0
13 3 13 15 3 8 -7 12 -16 9 -21z m2011 11 c3 -5 1 -10 -4 -10 -6 0 -11 5 -11
10 0 6 2 10 4 10 3 0 8 -4 11 -10z m145 -16 c0 -8 -19 -13 -24 -6 -3 5 1 9 9
9 8 0 15 -2 15 -3z m-2137 -29 c4 -8 1 -17 -6 -21 -7 -4 -9 -4 -5 1 4 4 3 14
-3 22 -7 8 -8 13 -1 13 5 0 12 -7 15 -15z m1952 -15 c3 -5 1 -10 -4 -10 -6 0
-11 5 -11 10 0 6 2 10 4 10 3 0 8 -4 11 -10z m-1929 -28 c-3 -3 0 -12 6 -20
13 -15 21 -49 10 -37 -4 4 -7 10 -7 13 0 4 -5 14 -10 22 -13 21 -15 41 -3 34
5 -3 7 -9 4 -12z m1890 0 c0 -10 -6 -19 -13 -19 -8 0 -9 6 -2 19 5 10 11 18
12 18 2 0 3 -8 3 -18z m-52 -72 c-6 -6 -10 -3 -10 10 0 13 4 16 10 10 7 -7 7
-13 0 -20z m-34 -55 c0 -5 -4 -4 -9 4 -7 10 -12 8 -25 -10 -9 -13 -16 -20 -16
-16 0 5 8 19 18 32 16 22 32 17 32 -10z m-1310 -185 c0 -5 -7 -10 -16 -10 -8
0 -12 5 -9 10 3 6 10 10 16 10 5 0 9 -4 9 -10z m-350 -42 c0 -5 5 -6 12 -2 6
4 9 3 6 -2 -5 -9 26 -44 40 -44 4 0 7 -5 7 -12 0 -6 6 -13 14 -16 9 -3 11 0 6
8 -5 9 -4 11 4 6 6 -4 8 -12 5 -18 -5 -8 -1 -9 10 -5 10 4 19 1 22 -8 4 -8 10
-12 15 -9 5 3 8 0 7 -8 -2 -7 3 -12 10 -11 6 2 12 -2 12 -8 0 -5 4 -8 9 -5 4
3 17 -1 27 -9 16 -11 17 -16 6 -27 -11 -11 -15 -10 -23 5 -6 9 -15 14 -21 11
-7 -5 -8 -2 -3 6 6 10 4 12 -11 6 -10 -4 -15 -4 -12 0 8 8 -14 34 -24 27 -4
-2 -5 3 -2 12 5 11 2 14 -10 9 -11 -4 -38 16 -88 66 -40 40 -61 65 -45 55 15
-9 27 -22 27 -27z m1270 -57 c0 -4 -7 -8 -15 -8 -16 0 -20 9 -9 20 8 8 24 -1
24 -12z m-1355 -30 c-8 -25 -27 -28 -23 -3 3 17 19 34 26 27 2 -2 1 -13 -3
-24z m1794 5 c9 -10 8 -15 -3 -19 -9 -4 -18 -2 -21 4 -4 5 -12 6 -18 2 -7 -4
-6 0 2 10 16 21 25 21 40 3z m-1773 -10 c-3 -22 -27 -46 -38 -39 -6 3 0 12 13
19 13 7 20 13 16 14 -5 0 -5 5 -2 10 9 14 14 12 11 -4z m1649 -36 c3 -5 2 -10
-4 -10 -5 0 -8 -12 -5 -27 3 -20 2 -24 -5 -13 -5 8 -8 17 -5 21 7 12 -25 4
-38 -9 -9 -9 -6 -11 10 -7 22 4 29 -5 15 -19 -5 -4 -8 -11 -9 -14 -2 -24 -29
-60 -40 -55 -8 3 -14 -1 -14 -11 0 -9 -4 -16 -10 -16 -5 0 -9 6 -7 13 1 7 -7
11 -22 9 -21 -2 -22 0 -10 15 8 9 9 14 2 10 -6 -4 -14 -1 -17 5 -2 7 -2 -4 0
-26 3 -21 2 -36 -3 -33 -15 10 -9 72 6 69 8 -2 21 0 30 3 14 6 14 8 -3 21 -11
8 -15 14 -10 14 6 0 15 -5 22 -12 6 -6 15 -8 19 -4 4 4 1 11 -7 16 -14 9 -13
10 15 10 3 0 14 9 25 20 11 11 27 20 36 20 8 0 12 5 9 10 -3 6 -2 10 4 10 5 0
13 -4 16 -10z m-1615 -32 c0 -6 -6 -5 -15 2 -8 7 -15 14 -15 16 0 2 7 1 15 -2
8 -4 15 -11 15 -16z m1686 10 c5 -7 2 -9 -8 -5 -9 3 -21 0 -27 -6 -8 -8 -11
-8 -11 0 0 10 14 20 32 22 4 1 10 -4 14 -11z m-1382 -35 c3 -7 12 -10 21 -7
10 4 15 0 15 -10 0 -9 0 -19 1 -23 0 -4 -5 -9 -13 -11 -9 -2 -8 0 2 7 13 10
13 11 0 12 -31 4 -36 5 -58 17 -12 7 -20 17 -17 22 8 13 44 8 49 -7z m-280 -8
c-7 -16 -24 -21 -24 -6 0 8 7 13 27 20 1 1 0 -6 -3 -14z m381 -30 c6 0 9 -10
8 -22 -2 -16 2 -21 12 -17 7 3 13 11 11 17 -1 7 -1 9 1 5 2 -4 12 -4 21 -1 13
4 13 2 -3 -11 -20 -18 -14 -18 30 0 14 6 20 -6 16 -29 -1 -5 4 -7 11 -4 7 2
12 9 11 14 -1 5 4 10 12 10 8 0 12 -4 9 -9 -3 -5 6 -7 20 -4 14 3 28 0 31 -5
4 -5 11 -9 16 -9 6 0 7 5 3 12 -4 7 -3 8 5 4 6 -4 9 -11 6 -15 -2 -5 13 -7 35
-5 30 2 40 -1 40 -12 0 -9 5 -12 10 -9 6 4 7 11 4 17 -4 7 0 7 13 -1 14 -7 24
-7 33 2 10 9 11 9 6 0 -4 -7 -3 -13 1 -13 5 0 15 6 22 13 9 8 12 8 7 0 -4 -8
8 -11 43 -9 41 2 48 0 44 -13 -4 -13 -2 -12 10 2 13 16 16 16 30 2 12 -11 17
-12 20 -2 3 6 4 2 4 -10 -1 -15 -5 -19 -11 -13 -6 6 -14 6 -23 -1 -9 -9 -13
-8 -13 0 0 7 -5 9 -12 4 -22 -13 -42 -13 -29 0 6 6 11 16 11 22 -1 5 -9 1 -18
-10 -10 -11 -24 -21 -32 -23 -11 -2 -11 1 2 11 16 12 14 14 -17 13 -31 -1 -33
-3 -18 -13 15 -12 15 -13 -5 -13 -14 0 -22 6 -22 18 0 11 -8 18 -20 19 -11 1
-19 -1 -17 -5 1 -4 -2 -8 -7 -9 -5 -1 -12 -7 -17 -14 -4 -8 -12 -10 -16 -5 -4
5 -2 11 5 13 18 7 -5 33 -29 33 -13 0 -17 -5 -12 -17 4 -11 8 -12 11 -5 2 7 8
12 14 12 6 0 6 -6 -2 -15 -16 -20 -30 -19 -30 1 0 14 -3 14 -15 4 -13 -11 -15
-10 -9 6 5 18 5 18 -10 0 -9 -11 -16 -14 -16 -7 0 7 -4 9 -10 6 -6 -4 -7 1 -3
11 5 13 3 15 -8 8 -23 -15 -63 -11 -77 8 -7 10 -18 18 -24 18 -6 0 -5 -7 3
-17 12 -15 11 -14 -13 1 -15 10 -32 15 -38 11 -5 -3 -15 5 -21 19 -10 21 -15
24 -33 15 -18 -8 -18 -8 -4 3 15 11 15 13 0 26 -15 11 -13 11 8 0 14 -7 30
-13 35 -13z m-285 11 c0 -11 -19 -15 -25 -6 -3 5 1 10 9 10 9 0 16 -2 16 -4z
m1320 -1 c0 -2 -9 -9 -20 -15 -12 -6 -20 -7 -20 -1 0 5 8 12 18 14 9 3 18 5
20 6 1 0 2 -1 2 -4z m-70 -24 c0 -5 -7 -12 -16 -15 -14 -5 -15 -4 -4 9 14 17
20 19 20 6z m-30 -43 c0 -19 -16 -5 -17 14 -2 18 0 20 7 8 5 -8 10 -18 10 -22z
m85 22 c-3 -5 -1 -10 6 -10 7 0 9 -3 6 -7 -10 -9 14 -34 26 -26 6 4 7 1 2 -7
-5 -9 -4 -11 4 -6 6 4 10 15 9 23 -2 9 4 18 12 20 13 4 13 3 0 -6 -8 -6 -10
-11 -4 -11 7 0 11 -15 11 -34 -1 -21 -5 -32 -12 -28 -19 12 -47 13 -39 0 5 -8
2 -9 -9 -5 -10 4 -17 1 -17 -5 0 -6 -3 -8 -7 -4 -5 4 0 14 10 21 18 13 18 14
-1 33 -11 11 -17 23 -14 27 4 4 8 11 8 16 2 16 4 19 10 19 3 0 2 -4 -1 -10z
m-291 -46 c3 -8 2 -12 -4 -9 -6 3 -10 10 -10 16 0 14 7 11 14 -7z m-157 -14
c1 -11 -2 -22 -6 -25 -5 -2 -8 7 -8 20 0 30 12 34 14 5z m113 6 c-16 -8 -29
-9 -37 -3 -9 6 -13 5 -13 -3 0 -8 -3 -11 -6 -7 -12 12 5 22 42 24 37 2 38 2
14 -11z m-72 -7 c-2 -6 -8 -10 -13 -10 -5 0 -11 4 -13 10 -2 6 4 11 13 11 9 0
15 -5 13 -11z m6 -97 c3 -5 -1 -9 -9 -9 -8 0 -12 4 -9 9 3 4 7 8 9 8 2 0 6 -4
9 -8z m236 -23 c0 -5 -3 -8 -7 -8 -27 4 -35 -1 -23 -16 8 -9 9 -15 2 -15 -6 0
-13 4 -16 8 -6 11 -36 9 -55 -2 -10 -7 -11 -4 -2 11 7 14 19 19 36 18 14 -2
25 0 25 4 0 4 9 7 20 8 11 1 20 -2 20 -8z m-476 -7 c2 -4 -4 -9 -15 -9 -11 -1
-17 2 -14 8 7 11 22 12 29 1z m51 -22 c-1 -17 -6 -34 -10 -38 -5 -5 -2 49 4
66 5 12 8 -4 6 -28z m42 -19 c-1 -12 -8 -19 -19 -18 -19 1 -26 17 -7 17 5 0 7
5 4 10 -3 6 1 10 9 10 8 0 14 -8 13 -19z m173 -20 c0 -4 -6 -8 -14 -8 -8 0
-12 6 -9 14 5 13 23 9 23 -6z"/>
<path d="M1975 3179 c-4 -5 -10 -7 -14 -5 -4 3 -8 -1 -8 -9 0 -19 5 -19 23 0
8 8 21 12 29 9 24 -10 17 -26 -7 -20 -13 3 -17 3 -10 0 6 -3 10 -10 6 -15 -10
-17 5 -9 33 18 17 16 21 24 11 20 -10 -4 -18 -3 -18 1 0 11 -39 12 -45 1z"/>
<path d="M1866 3165 c-11 -8 -15 -15 -9 -15 6 0 16 7 23 15 16 19 11 19 -14 0z"/>
<path d="M1895 3160 c-3 -6 1 -7 9 -4 18 7 21 14 7 14 -6 0 -13 -4 -16 -10z"/>
<path d="M1930 3143 c0 -6 7 -13 15 -17 9 -3 12 -12 9 -23 -5 -12 -1 -11 11 5
9 13 14 26 11 29 -3 4 -6 0 -6 -7 0 -9 -6 -8 -20 5 -11 10 -20 13 -20 8z"/>
<path d="M1844 3125 c-4 -8 -10 -15 -16 -15 -5 0 -7 4 -4 8 2 4 -4 9 -15 9
-10 1 -19 -3 -19 -8 0 -6 4 -8 9 -4 5 3 12 1 16 -5 10 -16 23 -12 35 10 6 11
8 20 5 20 -3 0 -8 -7 -11 -15z"/>
<path d="M1875 3130 c-3 -6 1 -7 9 -4 18 7 21 14 7 14 -6 0 -13 -4 -16 -10z"/>
<path d="M2310 3126 c0 -8 5 -18 10 -21 6 -3 10 1 10 9 0 8 -4 18 -10 21 -5 3
-10 -1 -10 -9z"/>
<path d="M1910 3120 c0 -6 7 -10 15 -10 8 0 15 2 15 4 0 2 -7 6 -15 10 -8 3
-15 1 -15 -4z"/>
<path d="M2004 3115 c-4 -8 -10 -13 -15 -10 -9 6 -34 -34 -26 -42 3 -2 8 5 12
16 4 13 13 18 25 16 11 -2 23 1 26 7 5 7 2 8 -6 3 -10 -6 -12 -4 -7 8 3 10 4
17 1 17 -2 0 -7 -7 -10 -15z"/>
<path d="M1715 3110 c-4 -6 -10 -8 -15 -5 -5 3 -12 0 -17 -7 -4 -7 -16 -14
-25 -15 -10 -2 -26 -4 -35 -5 -11 -2 -17 3 -15 10 1 8 -2 11 -8 7 -8 -5 -7
-12 2 -22 11 -14 10 -15 -12 -10 -14 4 -19 4 -12 1 6 -3 10 -9 8 -13 -8 -12
13 -37 22 -26 8 12 27 13 38 3 7 -7 -9 -12 -28 -9 -4 0 -5 -6 -2 -13 7 -18
-29 -38 -53 -29 -16 6 -16 5 -4 -10 10 -13 17 -14 27 -7 9 9 12 5 10 -14 -2
-14 1 -23 5 -20 5 3 9 0 9 -6 0 -7 -6 -10 -12 -7 -7 2 -11 13 -10 23 3 15 1
16 -9 7 -9 -9 -16 -10 -26 -2 -7 7 -13 8 -13 4 0 -5 -9 0 -20 10 -11 10 -23
15 -27 11 -4 -4 -1 -11 6 -15 8 -5 9 -11 3 -15 -6 -3 -12 -3 -15 1 -2 5 -2 2
0 -5 1 -7 -2 -10 -8 -7 -5 4 -7 16 -3 27 4 15 3 18 -6 13 -9 -5 -11 -4 -6 4 4
6 12 9 17 5 6 -3 9 2 7 12 -2 10 2 19 7 19 6 0 16 4 24 9 10 7 12 6 6 -4 -6
-9 -4 -11 5 -5 9 6 11 4 5 -5 -6 -9 -4 -11 6 -5 11 7 11 5 -1 -11 -14 -18 -14
-18 2 -5 10 7 15 17 12 22 -9 16 8 10 20 -7 10 -13 12 -13 12 5 0 11 -5 17
-11 14 -5 -4 -7 -3 -3 2 10 11 -11 47 -23 39 -5 -3 -7 -15 -3 -27 6 -18 4 -20
-7 -11 -17 14 -49 14 -49 1 0 -5 -7 -6 -16 -3 -9 3 -12 2 -9 -5 4 -5 1 -20 -7
-32 -21 -34 -17 -62 9 -63 13 -1 28 5 34 12 8 10 16 11 30 3 10 -5 19 -7 19
-4 0 3 11 -2 25 -11 13 -8 28 -13 34 -10 5 3 11 -1 15 -9 3 -8 11 -15 18 -15
11 0 11 2 0 8 -7 5 -10 16 -6 25 3 9 10 14 15 11 5 -3 7 -10 4 -15 -4 -5 1
-12 9 -15 9 -3 14 -10 11 -14 -3 -5 0 -12 7 -16 7 -4 10 -4 6 1 -4 4 -3 16 2
25 8 15 6 17 -12 12 -13 -3 -19 -1 -15 5 4 6 0 16 -8 23 -12 10 -16 9 -21 -5
-5 -13 -9 -14 -15 -3 -11 16 -11 28 -1 27 19 -3 32 2 30 12 -2 6 3 14 10 16 8
3 10 -2 6 -14 -5 -15 -4 -15 5 -3 8 11 11 11 11 2 0 -8 8 -5 22 8 13 12 24 16
26 10 2 -5 8 -10 14 -10 6 0 3 9 -7 20 -10 11 -13 20 -8 20 6 0 16 -7 23 -15
7 -8 17 -15 23 -15 6 0 1 7 -11 16 -21 14 -33 42 -13 30 16 -10 39 4 45 27 5
21 4 20 -14 -3 -18 -24 -20 -24 -36 -8 -15 15 -15 19 -3 34 9 12 10 15 2 10
-12 -6 -18 5 -14 27 2 10 -7 9 -14 -3z m10 -28 c3 -9 0 -12 -7 -9 -8 3 -14 -5
-14 -19 -1 -13 2 -24 8 -24 5 0 6 5 3 10 -3 6 -2 10 4 10 17 0 22 -17 8 -28
-7 -6 -20 -10 -30 -8 -19 2 -36 16 -20 16 6 0 10 10 10 23 1 12 1 27 2 33 2
16 29 13 36 -4z m-45 -23 c0 -5 -5 -9 -11 -9 -5 0 -7 -4 -4 -10 3 -5 1 -10 -4
-10 -6 0 -11 5 -11 10 0 6 -14 8 -32 5 l-33 -5 35 19 c33 18 60 18 60 0z
m-116 -25 c3 -8 2 -12 -4 -9 -6 3 -10 10 -10 16 0 14 7 11 14 -7z m110 -21 c4
-5 12 -9 17 -9 5 -1 15 -2 22 -3 7 -1 5 -7 -7 -16 -15 -12 -22 -12 -34 -3 -11
10 -18 8 -31 -7 -23 -28 -45 -32 -31 -6 21 41 49 59 64 44z"/>
<path d="M1634 2988 l-19 -23 23 19 c21 18 27 26 19 26 -2 0 -12 -10 -23 -22z"/>
<path d="M1676 2988 c3 -5 10 -6 15 -3 13 9 11 12 -6 12 -8 0 -12 -4 -9 -9z"/>
<path d="M1755 3100 c28 -12 37 -12 30 0 -3 6 -16 10 -28 9 -21 0 -21 -1 -2
-9z"/>
<path d="M1859 3103 c-1 -4 -1 -10 -1 -14 0 -3 -9 -11 -20 -18 -18 -11 -20
-11 -15 4 4 9 3 14 -3 10 -6 -3 -10 -1 -10 6 0 7 -3 10 -6 7 -3 -4 -1 -16 6
-27 10 -20 12 -20 35 -5 14 9 22 20 19 25 -3 5 4 9 15 9 14 0 19 -5 16 -20 -2
-11 1 -23 7 -26 7 -5 8 -2 3 6 -6 10 -4 12 9 7 9 -4 15 -3 11 2 -3 5 1 12 7
15 7 3 3 3 -10 0 -15 -4 -22 -1 -20 8 2 7 -7 14 -19 16 -13 2 -24 0 -24 -5z"/>
<path d="M2030 3079 c0 -5 5 -7 10 -4 6 3 10 8 10 11 0 2 -4 4 -10 4 -5 0 -10
-5 -10 -11z"/>
<path d="M1757 3073 c-10 -10 -8 -23 4 -23 5 0 8 4 5 9 -4 5 0 12 6 14 7 3 8
6 2 6 -6 1 -14 -2 -17 -6z"/>
<path d="M1876 3044 c4 -17 3 -25 -3 -21 -5 3 -17 -3 -26 -14 -9 -10 -12 -19
-7 -19 6 0 13 6 16 14 3 8 14 13 24 11 16 -3 17 0 8 26 -12 36 -21 38 -12 3z"/>
<path d="M1995 3050 c-4 -6 -9 -8 -13 -6 -4 2 -16 -2 -27 -10 -10 -8 -14 -14
-8 -14 7 0 14 4 18 9 3 6 14 8 24 6 10 -2 18 3 18 11 0 17 -4 18 -12 4z"/>
<path d="M2093 3045 c0 -7 5 -13 11 -12 6 1 10 -5 8 -13 -2 -8 0 -11 4 -7 4 4
9 15 10 23 1 9 0 13 -3 10 -4 -3 -11 -1 -18 4 -8 7 -12 5 -12 -5z"/>
<path d="M1840 3039 c0 -5 5 -7 10 -4 6 3 10 8 10 11 0 2 -4 4 -10 4 -5 0 -10
-5 -10 -11z"/>
<path d="M1429 3023 c-13 -16 -12 -17 4 -4 9 7 17 15 17 17 0 8 -8 3 -21 -13z"/>
<path d="M1820 3031 c0 -6 4 -13 10 -16 6 -3 7 1 4 9 -7 18 -14 21 -14 7z"/>
<path d="M1910 3030 c0 -5 5 -10 11 -10 5 0 7 5 4 10 -3 6 -8 10 -11 10 -2 0
-4 -4 -4 -10z"/>
<path d="M2053 3025 c0 -8 4 -12 9 -9 5 3 6 10 3 15 -9 13 -12 11 -12 -6z"/>
<path d="M1784 3015 c-18 -15 -18 -15 0 -8 13 4 17 3 12 -5 -5 -8 -1 -10 10
-5 11 4 13 8 6 11 -7 2 -10 8 -6 13 8 13 1 11 -22 -6z"/>
<path d="M1590 3000 c0 -5 5 -10 10 -10 6 0 10 5 10 10 0 6 -4 10 -10 10 -5 0
-10 -4 -10 -10z"/>
<path d="M1511 2974 c12 -13 25 -22 27 -19 3 3 12 -1 21 -8 14 -11 14 -10 3 5
-8 10 -19 16 -25 15 -6 -1 -11 4 -12 12 0 8 -8 15 -19 17 -16 2 -16 0 5 -22z"/>
<path d="M1390 2986 c0 -2 7 -6 15 -10 8 -3 15 -1 15 4 0 6 -7 10 -15 10 -8 0
-15 -2 -15 -4z"/>
<path d="M2410 2939 c0 -5 5 -7 10 -4 6 3 10 8 10 11 0 2 -4 4 -10 4 -5 0 -10
-5 -10 -11z"/>
<path d="M1678 2933 c7 -3 16 -2 19 1 4 3 -2 6 -13 5 -11 0 -14 -3 -6 -6z"/>
<path d="M2475 2920 c-3 -5 -1 -10 4 -10 6 0 11 5 11 10 0 6 -2 10 -4 10 -3 0
-8 -4 -11 -10z"/>
<path d="M1716 2907 c3 -10 9 -15 12 -12 3 3 0 11 -7 18 -10 9 -11 8 -5 -6z"/>
<path d="M2393 2905 c0 -8 4 -12 9 -9 5 3 6 10 3 15 -9 13 -12 11 -12 -6z"/>
<path d="M1560 2890 c-8 -5 -11 -10 -6 -10 5 0 3 -6 -3 -14 -7 -8 -21 -13 -32
-11 -11 2 -22 -2 -26 -10 -3 -8 -10 -12 -17 -8 -6 4 -5 -1 3 -10 18 -23 24
-22 55 10 16 16 24 20 20 10 -3 -10 -1 -17 5 -17 6 0 11 8 11 17 0 13 3 14 12
5 7 -7 17 -12 23 -12 5 0 4 4 -3 9 -11 7 -11 9 2 14 9 4 16 3 16 -1 0 -4 11
-7 24 -7 13 0 22 3 19 8 -2 4 -12 7 -22 7 -9 0 -23 6 -30 13 -11 10 -13 10 -7
0 10 -18 -4 -16 -18 2 -8 10 -15 12 -26 5z m23 -13 c3 -8 -1 -14 -8 -14 -7 0
-11 6 -8 14 3 7 6 13 8 13 2 0 5 -6 8 -13z m-53 -32 c0 -2 -6 -8 -13 -14 -10
-8 -14 -7 -14 2 0 8 6 14 14 14 7 0 13 -1 13 -2z"/>
<path d="M2510 2839 c0 -5 5 -7 10 -4 6 3 10 8 10 11 0 2 -4 4 -10 4 -5 0 -10
-5 -10 -11z"/>
<path d="M1430 2811 c0 -5 5 -13 10 -16 6 -3 10 -2 10 4 0 5 -4 13 -10 16 -5
3 -10 2 -10 -4z"/>
<path d="M1455 2761 c-3 -5 -2 -12 3 -15 5 -3 9 1 9 9 0 17 -3 19 -12 6z"/>
<path d="M2556 2753 c-6 -14 -5 -15 5 -6 7 7 10 15 7 18 -3 3 -9 -2 -12 -12z"/>
<path d="M2610 2740 c0 -5 5 -10 11 -10 5 0 7 5 4 10 -3 6 -8 10 -11 10 -2 0
-4 -4 -4 -10z"/>
<path d="M2613 2705 c0 -8 4 -12 9 -9 5 3 6 10 3 15 -9 13 -12 11 -12 -6z"/>
<path d="M1333 2685 c0 -8 4 -15 9 -15 4 0 8 4 8 9 0 6 -4 12 -8 15 -5 3 -9
-1 -9 -9z"/>
<path d="M1233 2630 c1 -21 10 -18 13 5 1 8 -2 15 -6 15 -5 0 -8 -9 -7 -20z"/>
<path d="M1270 2606 c0 -2 7 -7 16 -10 8 -3 12 -2 9 4 -6 10 -25 14 -25 6z"/>
<path d="M2761 2596 c-9 -11 -9 -16 1 -22 7 -4 10 -4 6 1 -4 4 -3 14 3 22 6 7
9 13 6 13 -2 0 -10 -6 -16 -14z"/>
<path d="M1238 2583 c7 -3 16 -2 19 1 4 3 -2 6 -13 5 -11 0 -14 -3 -6 -6z"/>
<path d="M1217 2570 c7 -8 20 -15 29 -16 9 -1 13 1 9 4 -4 4 -10 7 -13 7 -4 0
-14 4 -22 9 -12 7 -13 6 -3 -4z"/>
<path d="M1849 2549 c-20 -5 -48 -10 -63 -13 -91 -16 -221 -92 -298 -174 -110
-116 -167 -269 -163 -431 4 -111 6 -121 41 -213 70 -183 247 -332 445 -374
105 -22 267 -4 369 42 171 77 311 244 345 409 5 22 10 47 12 55 6 22 6 161 0
190 -44 218 -174 384 -364 464 -108 45 -237 63 -324 45z"/>
<path d="M1315 2540 c3 -5 8 -10 11 -10 2 0 4 5 4 10 0 6 -5 10 -11 10 -5 0
-7 -4 -4 -10z"/>
<path d="M2793 2543 c4 -3 1 -13 -6 -22 -11 -14 -10 -14 5 -2 16 12 16 31 1
31 -4 0 -3 -3 0 -7z"/>
<path d="M1256 2527 c3 -10 9 -15 12 -12 3 3 0 11 -7 18 -10 9 -11 8 -5 -6z"/>
<path d="M1196 2518 c3 -5 10 -6 15 -3 13 9 11 12 -6 12 -8 0 -12 -4 -9 -9z"/>
<path d="M1231 2507 c-8 -10 -7 -14 2 -14 8 0 14 6 14 14 0 7 -1 13 -2 13 -2
0 -8 -6 -14 -13z"/>
<path d="M1120 2480 c18 -12 30 -13 30 -2 0 4 -10 9 -22 9 -18 2 -20 0 -8 -7z"/>
<path d="M1116 2457 c3 -10 9 -15 12 -12 3 3 0 11 -7 18 -10 9 -11 8 -5 -6z"/>
<path d="M1150 2421 c0 -6 4 -12 8 -15 5 -3 9 1 9 9 0 8 -4 15 -9 15 -4 0 -8
-4 -8 -9z"/>
<path d="M1256 2418 c3 -5 10 -6 15 -3 13 9 11 12 -6 12 -8 0 -12 -4 -9 -9z"/>
<path d="M2834 2396 c1 -8 5 -18 8 -22 4 -3 5 1 4 10 -1 8 -5 18 -8 22 -4 3
-5 -1 -4 -10z"/>
<path d="M1110 2389 c0 -5 -6 -7 -12 -3 -7 4 -10 3 -5 -1 13 -15 46 -13 40 2
-6 16 -23 17 -23 2z"/>
<path d="M1075 2369 c4 -10 -5 -30 -22 -50 -17 -22 -20 -27 -6 -16 13 12 23
14 26 7 3 -6 4 -5 3 2 -2 7 1 21 6 32 7 12 6 22 -2 30 -8 8 -10 7 -5 -5z"/>
<path d="M1095 2340 c-3 -6 1 -7 9 -4 18 7 21 14 7 14 -6 0 -13 -4 -16 -10z"/>
<path d="M1215 2340 c3 -5 8 -10 11 -10 2 0 4 5 4 10 0 6 -5 10 -11 10 -5 0
-7 -4 -4 -10z"/>
<path d="M1114 2313 c2 -10 0 -23 -5 -29 -5 -6 -4 -11 5 -11 13 0 16 40 4 52
-4 4 -5 -1 -4 -12z"/>
<path d="M1145 2300 c-3 -6 1 -7 9 -4 18 7 21 14 7 14 -6 0 -13 -4 -16 -10z"/>
<path d="M1050 2280 c0 -5 5 -10 10 -10 6 0 10 5 10 10 0 6 -4 10 -10 10 -5 0
-10 -4 -10 -10z"/>
<path d="M1079 2268 c-9 -30 -6 -37 12 -28 23 13 25 22 2 13 -11 -4 -14 -3 -9
5 4 7 5 12 2 12 -3 0 -6 -1 -7 -2z"/>
<path d="M1150 2260 c0 -5 5 -10 11 -10 5 0 7 5 4 10 -3 6 -8 10 -11 10 -2 0
-4 -4 -4 -10z"/>
<path d="M1017 2242 c-15 -16 -15 -18 2 -18 12 0 17 5 13 15 -3 9 -1 12 6 7 7
-4 12 -2 12 3 0 16 -15 13 -33 -7z"/>
<path d="M1057 2218 c2 -5 10 -8 18 -8 8 0 16 3 18 8 3 4 -5 7 -18 7 -13 0
-21 -3 -18 -7z"/>
<path d="M1012 2194 c2 -8 7 -14 12 -14 5 1 13 -4 18 -12 8 -10 9 -10 5 2 -2
8 -10 14 -17 12 -8 -2 -10 3 -7 13 4 8 2 15 -4 15 -6 0 -9 -7 -7 -16z"/>
<path d="M1133 2149 c-2 -23 3 -25 10 -4 4 8 3 16 -1 19 -4 3 -9 -4 -9 -15z"/>
<path d="M2876 2158 c3 -5 10 -6 15 -3 13 9 11 12 -6 12 -8 0 -12 -4 -9 -9z"/>
<path d="M1015 2150 c-3 -5 7 -16 23 -24 23 -12 29 -12 29 -1 0 7 -7 11 -15 7
-10 -3 -13 -1 -8 6 5 8 1 10 -10 5 -12 -4 -15 -3 -10 5 4 7 5 12 2 12 -3 0 -7
-4 -11 -10z"/>
<path d="M1002 2124 c10 -10 20 -16 22 -13 3 3 -5 11 -17 18 -21 13 -21 12 -5
-5z"/>
<path d="M2890 2121 c0 -6 4 -12 8 -15 5 -3 9 1 9 9 0 8 -4 15 -9 15 -4 0 -8
-4 -8 -9z"/>
<path d="M996 2084 c5 -21 4 -25 -6 -19 -9 5 -11 4 -6 -4 4 -6 12 -9 17 -6 12
8 12 42 -1 50 -7 4 -8 -3 -4 -21z"/>
<path d="M1134 2096 c1 -8 5 -18 8 -22 4 -3 5 1 4 10 -1 8 -5 18 -8 22 -4 3
-5 -1 -4 -10z"/>
<path d="M1040 2080 c-8 -5 -12 -12 -9 -15 4 -3 12 1 19 10 14 17 11 19 -10 5z"/>
<path d="M2875 2071 c-3 -5 -2 -12 3 -15 5 -3 9 1 9 9 0 17 -3 19 -12 6z"/>
<path d="M1074 2053 c16 -20 36 -23 36 -6 0 4 -3 3 -7 0 -3 -4 -16 1 -27 10
-21 18 -21 18 -2 -4z"/>
<path d="M986 2014 c-6 -15 -4 -15 11 -3 10 7 20 15 22 16 2 2 -3 3 -11 3 -9
0 -19 -7 -22 -16z"/>
<path d="M1036 2018 c3 -5 10 -6 15 -3 13 9 11 12 -6 12 -8 0 -12 -4 -9 -9z"/>
<path d="M1073 2023 c4 -3 1 -13 -6 -22 -11 -14 -10 -14 5 -2 16 12 16 31 1
31 -4 0 -3 -3 0 -7z"/>
<path d="M1005 1999 c-11 -16 -1 -19 13 -3 7 8 8 14 3 14 -5 0 -13 -5 -16 -11z"/>
<path d="M995 1960 c-13 -6 -15 -9 -5 -9 8 0 22 4 30 9 18 12 2 12 -25 0z"/>
<path d="M1014 1938 c-4 -6 -3 -8 4 -4 5 3 12 1 14 -6 3 -8 6 -9 11 -1 4 6 0
13 -8 17 -8 3 -17 0 -21 -6z"/>
<path d="M2855 1940 c3 -5 8 -10 11 -10 2 0 4 5 4 10 0 6 -5 10 -11 10 -5 0
-7 -4 -4 -10z"/>
<path d="M983 1927 c9 -8 17 -17 17 -20 0 -4 -8 -4 -17 -1 -15 5 -15 4 -3 -4
8 -6 18 -8 22 -6 14 9 8 23 -14 34 -21 10 -21 10 -5 -3z"/>
<path d="M2885 1919 c-3 -4 2 -6 10 -5 21 3 28 13 10 13 -9 0 -18 -4 -20 -8z"/>
<path d="M1050 1896 c0 -2 8 -10 18 -17 15 -13 16 -12 3 4 -13 16 -21 21 -21
13z"/>
<path d="M999 1873 c-13 -17 -13 -17 6 -3 11 8 22 16 24 17 2 2 0 3 -6 3 -6 0
-17 -8 -24 -17z"/>
<path d="M2856 1882 c-3 -5 1 -9 9 -9 8 0 12 4 9 9 -3 4 -7 8 -9 8 -2 0 -6 -4
-9 -8z"/>
<path d="M1020 1866 c0 -2 9 -6 20 -9 11 -3 18 -1 14 4 -5 9 -34 13 -34 5z"/>
<path d="M987 1843 c7 -2 9 -12 6 -21 -4 -13 -3 -14 5 -3 5 7 15 17 22 21 7 4
1 7 -16 7 -16 0 -24 -2 -17 -4z"/>
<path d="M1030 1823 c0 -13 17 -26 38 -29 6 -1 10 2 6 7 -3 5 -9 7 -14 4 -5
-3 -13 3 -19 12 -6 10 -11 13 -11 6z"/>
<path d="M1090 1820 c0 -5 5 -10 11 -10 5 0 7 5 4 10 -3 6 -8 10 -11 10 -2 0
-4 -4 -4 -10z"/>
<path d="M2816 1822 c-3 -5 1 -9 9 -9 8 0 12 4 9 9 -3 4 -7 8 -9 8 -2 0 -6 -4
-9 -8z"/>
<path d="M1014 1803 c2 -14 -2 -23 -13 -26 -14 -4 -14 -5 1 -6 22 -1 28 9 17
34 -9 19 -9 19 -5 -2z"/>
<path d="M1090 1779 c0 -5 5 -7 10 -4 6 3 10 8 10 11 0 2 -4 4 -10 4 -5 0 -10
-5 -10 -11z"/>
<path d="M2839 1778 c-6 -20 -6 -39 0 -42 4 -3 7 6 7 20 0 20 -4 32 -7 22z"/>
<path d="M1032 1765 c4 -4 0 -13 -9 -20 -13 -9 -13 -14 -3 -20 9 -6 11 -4 5 5
-5 9 -1 11 16 6 13 -3 18 -3 11 0 -6 3 -10 10 -7 14 3 5 0 12 -7 16 -7 4 -10
4 -6 -1z"/>
<path d="M1075 1751 c-3 -5 -2 -12 3 -15 5 -3 9 1 9 9 0 17 -3 19 -12 6z"/>
<path d="M2770 1725 c0 -5 5 -17 10 -25 5 -8 10 -10 10 -5 0 6 -5 17 -10 25
-5 8 -10 11 -10 5z"/>
<path d="M2815 1720 c-4 -6 -1 -9 7 -8 7 2 12 -3 10 -10 -1 -8 2 -11 8 -7 8 5
7 11 -1 21 -14 17 -16 17 -24 4z"/>
<path d="M1008 1708 c7 -9 21 -14 32 -11 25 7 26 15 3 11 -10 -1 -25 2 -33 7
-13 7 -13 6 -2 -7z"/>
<path d="M2806 1682 c-3 -5 1 -9 9 -9 8 0 12 4 9 9 -3 4 -7 8 -9 8 -2 0 -6 -4
-9 -8z"/>
<path d="M1130 1659 c0 -5 5 -7 10 -4 6 3 10 8 10 11 0 2 -4 4 -10 4 -5 0 -10
-5 -10 -11z"/>
<path d="M1025 1633 c-5 -14 -4 -15 6 -6 10 10 15 9 26 -5 13 -15 13 -15 3 6
-13 26 -25 28 -35 5z"/>
<path d="M2755 1641 c-3 -5 -2 -12 3 -15 5 -3 9 1 9 9 0 17 -3 19 -12 6z"/>
<path d="M1091 1607 c-13 -21 -12 -21 5 -5 10 10 16 20 13 22 -3 3 -11 -5 -18
-17z"/>
<path d="M1060 1591 c0 -7 -5 -9 -12 -5 -7 5 -8 3 -3 -5 5 -9 10 -10 18 -2 6
6 8 14 4 18 -4 3 -7 1 -7 -6z"/>
<path d="M2735 1580 c3 -5 8 -10 11 -10 2 0 4 5 4 10 0 6 -5 10 -11 10 -5 0
-7 -4 -4 -10z"/>
<path d="M1067 1551 c-4 -17 -3 -21 5 -13 5 5 8 16 6 23 -3 8 -7 3 -11 -10z"/>
<path d="M1096 1538 c3 -5 10 -6 15 -3 13 9 11 12 -6 12 -8 0 -12 -4 -9 -9z"/>
<path d="M1151 1527 c-8 -10 -7 -14 2 -14 8 0 14 6 14 14 0 7 -1 13 -2 13 -2
0 -8 -6 -14 -13z"/>
<path d="M1075 1521 c-6 -11 13 -26 22 -17 4 3 1 6 -6 6 -7 0 -9 5 -6 10 3 6
4 10 1 10 -3 0 -7 -4 -11 -9z"/>
<path d="M1115 1520 c-3 -5 -1 -10 4 -10 6 0 11 5 11 10 0 6 -2 10 -4 10 -3 0
-8 -4 -11 -10z"/>
<path d="M2756 1522 c-3 -5 1 -9 9 -9 8 0 12 4 9 9 -3 4 -7 8 -9 8 -2 0 -6 -4
-9 -8z"/>
<path d="M1090 1475 c0 -8 2 -15 4 -15 2 0 6 7 10 15 3 8 1 15 -4 15 -6 0 -10
-7 -10 -15z"/>
<path d="M1110 1461 c0 -6 4 -12 8 -15 5 -3 9 1 9 9 0 8 -4 15 -9 15 -4 0 -8
-4 -8 -9z"/>
<path d="M1137 1440 c-5 -20 9 -38 20 -26 4 3 2 6 -4 6 -6 0 -9 9 -6 20 3 11
3 20 0 20 -2 0 -7 -9 -10 -20z"/>
<path d="M1185 1400 c-3 -6 1 -7 9 -4 18 7 21 14 7 14 -6 0 -13 -4 -16 -10z"/>
<path d="M1140 1386 c0 -2 7 -6 15 -10 8 -3 15 -1 15 4 0 6 -7 10 -15 10 -8 0
-15 -2 -15 -4z"/>
<path d="M1240 1380 c-12 -7 -10 -9 7 -7 12 0 19 5 17 9 -6 10 -6 10 -24 -2z"/>
<path d="M1181 1364 c0 -11 3 -14 6 -6 3 7 2 16 -1 19 -3 4 -6 -2 -5 -13z"/>
<path d="M1234 1335 c0 -13 3 -22 7 -19 8 4 6 30 -2 38 -3 3 -5 -5 -5 -19z"/>
<path d="M1192 1341 c-11 -6 -10 -10 4 -15 9 -3 19 -4 22 -1 3 3 0 5 -7 5 -7
0 -9 5 -6 10 7 12 4 12 -13 1z"/>
<path d="M1267 1339 c7 -7 15 -10 18 -7 3 3 -2 9 -12 12 -14 6 -15 5 -6 -5z"/>
<path d="M2639 1333 c-13 -16 -12 -17 4 -4 9 7 17 15 17 17 0 8 -8 3 -21 -13z"/>
<path d="M2550 1326 c0 -2 7 -7 16 -10 8 -3 12 -2 9 4 -6 10 -25 14 -25 6z"/>
<path d="M1230 1291 c28 -23 40 -26 40 -11 0 6 -3 9 -7 8 -5 -1 -19 4 -33 11
l-25 12 25 -20z"/>
<path d="M1319 1295 c-1 -3 -2 -8 -3 -12 -1 -5 -5 -15 -10 -23 -7 -12 -6 -13
4 -3 13 12 23 43 14 43 -2 0 -5 -2 -5 -5z"/>
<path d="M2496 1278 c3 -5 10 -6 15 -3 13 9 11 12 -6 12 -8 0 -12 -4 -9 -9z"/>
<path d="M1235 1250 c3 -5 8 -10 11 -10 2 0 4 5 4 10 0 6 -5 10 -11 10 -5 0
-7 -4 -4 -10z"/>
<path d="M1272 1241 c-11 -6 -10 -10 4 -15 9 -3 19 -4 22 -1 3 3 0 5 -7 5 -7
0 -9 5 -6 10 7 12 4 12 -13 1z"/>
<path d="M1391 1227 c-13 -21 -12 -21 5 -5 10 10 16 20 13 22 -3 3 -11 -5 -18
-17z"/>
<path d="M1315 1231 c-3 -5 -2 -12 3 -15 5 -3 9 1 9 9 0 17 -3 19 -12 6z"/>
<path d="M1340 1211 c0 -6 4 -13 10 -16 6 -3 7 1 4 9 -7 18 -14 21 -14 7z"/>
<path d="M1413 1195 c0 -8 4 -12 9 -9 5 3 6 10 3 15 -9 13 -12 11 -12 -6z"/>
<path d="M1450 1196 c7 -7 13 -7 20 0 6 6 3 10 -10 10 -13 0 -16 -4 -10 -10z"/>
<path d="M2450 1201 c0 -6 4 -13 10 -16 6 -3 7 1 4 9 -7 18 -14 21 -14 7z"/>
<path d="M2320 1180 c-12 -7 -10 -9 7 -7 12 0 19 5 17 9 -6 10 -6 10 -24 -2z"/>
<path d="M1337 1173 c-3 -5 6 -9 20 -10 19 -1 22 1 12 8 -17 11 -26 11 -32 2z"/>
<path d="M1439 1168 c15 -21 31 -23 31 -6 0 6 -3 8 -7 5 -3 -4 -13 -1 -22 6
-14 11 -14 10 -2 -5z"/>
<path d="M1413 1158 c6 -19 -19 -33 -26 -15 -2 7 -7 9 -11 6 -4 -3 0 -11 7
-17 20 -17 51 7 36 28 -9 13 -10 13 -6 -2z"/>
<path d="M1590 1159 c0 -5 5 -7 10 -4 6 3 10 8 10 11 0 2 -4 4 -10 4 -5 0 -10
-5 -10 -11z"/>
<path d="M2193 1155 c0 -8 4 -12 9 -9 5 3 6 10 3 15 -9 13 -12 11 -12 -6z"/>
<path d="M2430 1159 c0 -5 5 -7 10 -4 6 3 10 8 10 11 0 2 -4 4 -10 4 -5 0 -10
-5 -10 -11z"/>
<path d="M1421 1120 c-9 -5 -4 -7 13 -7 29 0 32 2 13 10 -8 3 -20 2 -26 -3z"/>
<path d="M1500 1120 c0 -5 5 -10 11 -10 5 0 7 5 4 10 -3 6 -8 10 -11 10 -2 0
-4 -4 -4 -10z"/>
<path d="M1530 1121 c0 -6 4 -13 10 -16 6 -3 7 1 4 9 -7 18 -14 21 -14 7z"/>
<path d="M2073 1105 c0 -8 4 -12 9 -9 5 3 6 10 3 15 -9 13 -12 11 -12 -6z"/>
<path d="M1473 1098 c2 -7 1 -20 -4 -28 -5 -12 -2 -16 12 -17 10 -1 19 3 19 8
0 6 -5 7 -10 4 -7 -4 -9 3 -6 19 3 14 0 26 -5 26 -6 0 -9 -6 -6 -12z"/>
<path d="M1690 1099 c0 -5 5 -7 10 -4 6 3 10 8 10 11 0 2 -4 4 -10 4 -5 0 -10
-5 -10 -11z"/>
<path d="M2133 1095 c0 -8 4 -12 9 -9 5 3 6 10 3 15 -9 13 -12 11 -12 -6z"/>
<path d="M2213 1095 c0 -8 4 -12 9 -9 5 3 6 10 3 15 -9 13 -12 11 -12 -6z"/>
<path d="M2270 1102 c0 -5 7 -9 15 -9 8 0 12 4 9 9 -3 4 -9 8 -15 8 -5 0 -9
-4 -9 -8z"/>
<path d="M1586 1075 c19 -29 21 -30 21 -11 0 7 -9 19 -19 25 -18 11 -18 11 -2
-14z"/>
<path d="M1630 1096 c0 -2 8 -10 18 -17 15 -13 16 -12 3 4 -13 16 -21 21 -21
13z"/>
<path d="M1550 1075 c0 -8 4 -15 10 -15 5 0 7 7 4 15 -4 8 -8 15 -10 15 -2 0
-4 -7 -4 -15z"/>
<path d="M2235 1081 c-3 -5 -2 -12 3 -15 5 -3 9 1 9 9 0 17 -3 19 -12 6z"/>
<path d="M1775 1061 c-3 -5 -1 -12 5 -16 15 -9 12 -28 -2 -19 -7 4 -9 3 -5 -1
15 -17 36 -14 29 3 -5 14 -3 15 9 5 13 -10 16 -10 16 1 0 7 -10 13 -21 12 -12
-1 -20 4 -18 12 2 14 -4 16 -13 3z"/>
<path d="M1853 1049 c-2 -23 3 -25 10 -4 4 8 3 16 -1 19 -4 3 -9 -4 -9 -15z"/>
<path d="M2160 1055 c-7 -9 -11 -17 -9 -20 3 -2 10 5 17 15 14 24 10 26 -8 5z"/>
<path d="M1737 1053 c-10 -9 -9 -23 1 -23 5 0 9 7 9 15 0 17 -1 18 -10 8z"/>
<path d="M1989 1043 c-13 -16 -12 -17 4 -4 16 13 21 21 13 21 -2 0 -10 -8 -17
-17z"/>
<path d="M1567 1044 c-8 -8 3 -34 15 -34 6 0 4 8 -3 17 -12 15 -12 16 4 10 11
-4 16 -3 12 3 -7 11 -19 13 -28 4z"/>
<path d="M1670 1040 c0 -5 5 -10 11 -10 5 0 7 5 4 10 -3 6 -8 10 -11 10 -2 0
-4 -4 -4 -10z"/>
<path d="M1926 1042 c-3 -5 1 -9 9 -9 8 0 12 4 9 9 -3 4 -7 8 -9 8 -2 0 -6 -4
-9 -8z"/>
<path d="M1870 1036 c0 -2 8 -10 18 -17 15 -13 16 -12 3 4 -13 16 -21 21 -21
13z"/>
<path d="M1710 1021 c0 -6 4 -13 10 -16 6 -3 7 1 4 9 -7 18 -14 21 -14 7z"/>
<path d="M1750 1013 c5 -2 8 -9 4 -14 -3 -5 0 -9 6 -9 15 0 7 23 -8 26 -7 1
-8 0 -2 -3z"/>
<path d="M1850 1011 c0 -7 -4 -10 -9 -6 -15 9 -25 -15 -12 -28 9 -9 10 -7 5 7
-5 13 -4 17 4 12 12 -7 28 12 18 21 -3 4 -6 1 -6 -6z"/>
<path d="M1788 983 c7 -3 16 -2 19 1 4 3 -2 6 -13 5 -11 0 -14 -3 -6 -6z"/>
<path d="M2870 2670 c0 -5 5 -10 11 -10 5 0 7 5 4 10 -3 6 -8 10 -11 10 -2 0
-4 -4 -4 -10z"/>
<path d="M2886 2638 c3 -5 10 -6 15 -3 13 9 11 12 -6 12 -8 0 -12 -4 -9 -9z"/>
<path d="M2913 2615 c0 -8 4 -12 9 -9 5 3 6 10 3 15 -9 13 -12 11 -12 -6z"/>
<path d="M3006 2342 c-3 -5 1 -9 9 -9 8 0 12 4 9 9 -3 4 -7 8 -9 8 -2 0 -6 -4
-9 -8z"/>
<path d="M2782 1247 c-9 -10 -8 -14 3 -14 8 0 12 4 9 9 -3 4 -1 8 5 8 5 0 12
-5 14 -10 3 -6 4 -5 3 2 -3 18 -21 21 -34 5z"/>
<path d="M2678 1209 c-9 -5 -15 -16 -12 -24 7 -17 20 -12 34 16 12 21 4 24
-22 8z"/>
<path d="M2645 1170 c-4 -6 -4 -14 -1 -17 3 -4 6 0 6 8 1 10 3 9 11 -3 10 -17
39 -14 39 4 0 6 -6 8 -14 5 -7 -3 -18 -1 -24 5 -6 6 -12 6 -17 -2z"/>
<path d="M2604 1115 c0 -13 3 -22 7 -19 8 4 6 30 -2 38 -3 3 -5 -5 -5 -19z"/>
<path d="M2519 1088 c-5 -10 -7 -59 -3 -55 6 6 13 57 8 57 -2 0 -5 -1 -5 -2z"/>
<path d="M2247 926 c-3 -8 0 -13 6 -12 15 2 22 19 9 24 -5 1 -12 -4 -15 -12z"/>
<path d="M2174 915 c-12 -8 -25 -11 -29 -7 -5 4 -5 1 -1 -6 6 -10 11 -10 21
-2 8 7 20 8 26 4 7 -4 9 -3 5 4 -3 5 0 13 6 15 7 3 8 6 3 6 -6 1 -20 -6 -31
-14z"/>
<path d="M1280 896 c0 -2 7 -9 15 -16 9 -7 15 -8 15 -2 0 5 -7 12 -15 16 -8 3
-15 4 -15 2z"/>
<path d="M2596 848 c3 -5 -2 -18 -11 -28 -19 -21 -11 -48 9 -31 7 6 15 8 19 5
3 -3 3 9 1 28 -5 30 -4 31 9 14 12 -16 14 -16 14 -2 0 9 -3 16 -6 17 -3 0 -14
2 -24 4 -9 2 -14 -1 -11 -7z m2 -42 c-7 -8 -15 -12 -17 -11 -5 6 10 25 20 25
5 0 4 -6 -3 -14z"/>
<path d="M1346 846 c10 -8 21 -12 24 -10 5 6 -21 24 -34 24 -6 0 -1 -6 10 -14z"/>
<path d="M1595 750 c-2 -3 5 -6 15 -7 11 -1 22 2 24 5 3 4 -4 8 -15 8 -11 0
-22 -3 -24 -6z"/>
<path d="M1656 747 c3 -10 9 -15 12 -12 3 3 0 11 -7 18 -10 9 -11 8 -5 -6z"/>
<path d="M2501 733 c7 -12 15 -20 18 -17 3 2 -3 12 -13 22 -17 16 -18 16 -5
-5z"/>
<path d="M2345 3280 c-3 -6 1 -7 9 -4 18 7 21 14 7 14 -6 0 -13 -4 -16 -10z"/>
<path d="M2413 3235 c0 -8 4 -12 9 -9 5 3 6 10 3 15 -9 13 -12 11 -12 -6z"/>
<path d="M1475 3220 c3 -5 8 -10 11 -10 2 0 4 5 4 10 0 6 -5 10 -11 10 -5 0
-7 -4 -4 -10z"/>
<path d="M2550 3198 c0 -4 4 -8 9 -8 6 0 12 4 15 8 3 5 -1 9 -9 9 -8 0 -15 -4
-15 -9z"/>
<path d="M2555 3160 c3 -5 8 -10 11 -10 2 0 4 5 4 10 0 6 -5 10 -11 10 -5 0
-7 -4 -4 -10z"/>
<path d="M1270 3125 c-24 -13 -24 -14 -3 -12 12 1 25 7 27 14 6 16 7 16 -24
-2z"/>
<path d="M1220 3124 c0 -13 18 -39 24 -34 2 3 -2 14 -10 24 -8 11 -14 16 -14
10z"/>
<path d="M2610 3121 c0 -6 4 -13 10 -16 6 -3 7 1 4 9 -7 18 -14 21 -14 7z"/>
<path d="M1179 3097 c6 -8 7 -18 3 -22 -4 -5 -1 -5 6 -1 10 6 10 11 1 22 -6 8
-14 14 -16 14 -3 0 0 -6 6 -13z"/>
<path d="M1145 3080 c-3 -6 1 -7 9 -4 18 7 21 14 7 14 -6 0 -13 -4 -16 -10z"/>
<path d="M1155 3061 c-3 -5 -2 -12 3 -15 5 -3 9 1 9 9 0 17 -3 19 -12 6z"/>
<path d="M1215 3060 c-3 -5 -1 -10 4 -10 6 0 11 5 11 10 0 6 -2 10 -4 10 -3 0
-8 -4 -11 -10z"/>
<path d="M1105 3050 c-4 -6 -10 -8 -14 -6 -4 3 -8 -1 -8 -8 0 -8 6 -12 14 -9
7 3 13 9 13 15 0 5 5 6 10 3 6 -3 10 -1 10 4 0 14 -17 14 -25 1z"/>
<path d="M1052 3023 c-21 -8 -34 -41 -20 -49 7 -4 10 -4 6 1 -10 10 11 37 23
29 5 -3 9 2 9 10 0 9 -1 16 -2 15 -2 0 -9 -3 -16 -6z"/>
<path d="M996 2978 c5 -8 1 -9 -12 -4 -14 5 -16 4 -7 -5 6 -6 16 -8 22 -5 14
9 14 26 0 26 -5 0 -7 -5 -3 -12z"/>
<path d="M1096 2982 c-3 -5 1 -9 9 -9 8 0 12 4 9 9 -3 4 -7 8 -9 8 -2 0 -6 -4
-9 -8z"/>
<path d="M2886 2982 c-3 -5 1 -9 9 -9 8 0 12 4 9 9 -3 4 -7 8 -9 8 -2 0 -6 -4
-9 -8z"/>
<path d="M920 2924 c-44 -35 -60 -52 -60 -66 0 -4 14 7 31 25 17 17 35 31 40
30 5 -2 9 2 9 8 0 6 6 9 13 6 8 -3 14 3 14 14 1 10 1 19 0 18 -1 0 -22 -16
-47 -35z"/>
<path d="M2862 2943 c2 -14 7 -19 17 -15 10 4 12 1 6 -8 -5 -8 -4 -11 2 -7 10
6 31 -15 51 -49 7 -12 12 -14 12 -5 0 11 3 11 15 1 8 -7 12 -17 8 -24 -3 -6
-3 -8 2 -4 9 8 35 -15 35 -32 0 -6 4 -9 9 -6 13 8 21 -19 10 -33 -6 -8 -5 -8
3 -1 14 11 51 -27 41 -43 -3 -6 -1 -7 5 -3 7 4 12 1 12 -8 0 -9 4 -15 9 -13 5
1 9 -2 9 -7 0 -5 4 -12 9 -15 14 -10 78 -115 75 -123 -1 -5 2 -8 7 -8 5 0 15
-16 22 -35 13 -36 23 -43 34 -25 3 6 3 10 -2 10 -12 0 -43 59 -43 81 0 11 -4
18 -8 15 -5 -3 -15 6 -22 19 -7 14 -17 25 -22 25 -5 0 -7 4 -3 9 3 5 -2 17
-11 25 -8 9 -13 16 -10 16 3 0 -10 16 -29 37 -19 20 -32 40 -29 45 3 5 2 7 -3
6 -4 -2 -8 -1 -8 2 0 3 -15 19 -32 36 -18 17 -30 34 -26 37 3 4 -1 7 -10 7 -9
0 -28 16 -43 35 -15 20 -29 33 -32 30 -3 -2 -13 5 -23 17 -11 11 -19 17 -19
12 0 -5 -5 -2 -10 6 -7 12 -9 10 -8 -7z"/>
<path d="M2820 2946 c0 -2 8 -10 18 -17 15 -13 16 -12 3 4 -13 16 -21 21 -21
13z"/>
<path d="M1030 2921 c0 -6 4 -13 10 -16 6 -3 7 1 4 9 -7 18 -14 21 -14 7z"/>
<path d="M974 2902 c4 -3 14 -7 22 -8 9 -1 13 0 10 4 -4 3 -14 7 -22 8 -9 1
-13 0 -10 -4z"/>
<path d="M1230 2900 c-11 -7 -12 -12 -4 -20 8 -8 14 -7 23 4 14 17 1 28 -19
16z"/>
<path d="M1091 2874 c6 -8 8 -14 3 -14 -4 0 1 -6 11 -14 13 -9 25 -11 36 -5 9
4 19 5 23 1 4 -3 4 2 0 12 -5 13 -9 14 -14 6 -6 -9 -10 -7 -14 7 -4 13 -15 21
-31 21 -20 0 -23 -3 -14 -14z m35 -20 c1 -9 0 -13 -4 -10 -3 4 -7 14 -8 22 -1
9 0 13 4 10 3 -4 7 -14 8 -22z"/>
<path d="M2880 2886 c0 -2 8 -10 18 -17 15 -13 16 -12 3 4 -13 16 -21 21 -21
13z"/>
<path d="M841 2865 c-1 -6 -31 -43 -68 -82 -73 -77 -94 -103 -134 -170 -14
-24 -29 -40 -33 -36 -4 4 -4 -1 0 -11 5 -14 4 -17 -4 -12 -8 4 -12 1 -12 -10
0 -10 -8 -26 -17 -36 -9 -11 -18 -24 -19 -31 -1 -7 -10 -30 -20 -52 -10 -22
-17 -43 -16 -47 1 -5 -2 -8 -8 -8 -5 0 -10 -6 -10 -14 0 -7 -11 -48 -25 -90
-14 -42 -25 -90 -25 -107 0 -17 -3 -28 -7 -26 -5 3 -9 -14 -11 -36 -6 -94 -9
-125 -16 -135 -4 -7 -2 -12 4 -12 6 0 8 -5 4 -12 -11 -17 -11 -118 0 -118 5 0
3 -6 -3 -13 -6 -8 -8 -17 -4 -20 6 -6 15 -78 17 -139 0 -16 5 -28 9 -28 4 0 7
-6 6 -12 -3 -15 18 -92 33 -124 6 -12 11 -33 11 -48 1 -14 6 -26 10 -26 5 0 5
-4 2 -10 -3 -5 -1 -10 4 -10 6 0 11 -9 11 -20 0 -11 4 -20 10 -20 5 0 9 -3 7
-8 -3 -9 55 -126 66 -130 4 -2 5 -8 1 -13 -3 -5 0 -9 6 -9 7 0 9 -7 6 -17 -4
-10 -4 -14 0 -11 7 8 70 -72 66 -84 -1 -5 4 -8 11 -8 8 0 20 -12 28 -27 8 -15
26 -38 42 -51 15 -13 25 -28 21 -33 -3 -5 0 -9 6 -9 14 0 40 -25 40 -39 0 -6
7 -8 15 -5 13 6 20 -6 16 -29 0 -4 2 -6 6 -6 23 4 35 -3 30 -15 -4 -11 -1 -13
10 -9 13 5 15 2 10 -12 -7 -16 -5 -16 10 -4 15 12 16 12 10 -3 -8 -22 16 -43
30 -26 11 13 3 50 -10 49 -21 -3 -28 0 -22 9 3 6 -1 10 -9 10 -9 0 -16 4 -16
8 0 5 -11 15 -25 22 -14 7 -25 19 -25 27 0 7 -6 12 -12 11 -7 -2 -13 7 -13 19
0 11 -4 25 -8 29 -4 5 -5 0 -1 -10 6 -16 4 -17 -14 -7 -12 7 -22 19 -22 27 0
8 -4 12 -10 9 -6 -3 -10 0 -10 7 0 7 -9 19 -21 26 -12 7 -19 16 -16 18 3 3
-10 21 -29 39 -19 19 -34 39 -34 45 0 5 -5 10 -11 10 -8 0 -7 6 2 17 8 9 9 14
2 10 -7 -4 -20 5 -32 22 -22 31 -26 47 -13 54 4 2 2 2 -5 1 -13 -3 -45 52 -34
59 3 2 1 2 -6 1 -12 -3 -35 50 -26 60 4 3 1 6 -5 6 -7 0 -12 9 -12 19 0 11 -4
22 -9 25 -5 3 -12 21 -15 40 -4 19 -12 37 -19 39 -9 4 -9 6 1 6 10 1 10 6 2
21 -6 11 -8 26 -4 32 5 7 3 8 -6 3 -10 -6 -12 -4 -7 8 4 10 2 17 -5 17 -6 0
-5 6 3 17 10 11 10 14 2 9 -8 -4 -13 -2 -14 6 0 7 -2 29 -5 48 -3 19 -6 49 -7
65 -2 17 -6 36 -11 43 -7 11 -1 16 17 13 4 -1 1 9 -6 21 -10 15 -13 44 -11 83
2 33 5 84 6 112 2 29 5 53 8 53 3 0 5 15 6 33 1 17 4 48 8 67 4 19 7 43 7 53
0 9 5 17 11 17 5 0 8 7 4 15 -3 8 -1 15 5 15 6 0 8 4 4 9 -3 5 0 13 6 16 5 4
8 13 5 21 -3 8 -1 14 4 14 5 0 7 9 5 20 -2 11 3 24 12 28 8 5 14 11 13 13 -4
11 13 59 22 59 5 0 6 5 3 10 -3 6 -1 10 4 10 6 0 10 3 10 8 -4 22 2 42 11 37
9 -5 11 -1 10 20 -1 3 6 13 15 21 8 9 15 22 15 30 0 8 5 14 12 14 6 0 9 3 6 6
-3 3 5 17 18 31 13 14 24 32 24 39 0 8 4 14 8 14 5 0 15 11 22 25 7 13 18 22
23 18 6 -3 7 -1 3 5 -4 7 -2 12 3 12 6 0 11 4 11 9 0 5 21 30 46 54 26 26 44
51 41 59 -3 7 -6 8 -6 3z m119 -2055 c0 -5 -2 -10 -4 -10 -3 0 -8 5 -11 10 -3
6 -1 10 4 10 6 0 11 -4 11 -10z"/>
<path d="M974 2862 c4 -3 14 -7 22 -8 9 -1 13 0 10 4 -4 3 -14 7 -22 8 -9 1
-13 0 -10 -4z"/>
<path d="M1050 2844 c-6 -16 -14 -23 -22 -18 -7 4 -10 4 -6 -1 4 -4 3 -14 -4
-22 -23 -28 32 -40 58 -12 9 10 14 19 9 19 -4 0 -2 6 4 14 8 10 9 16 1 21 -6
3 -8 11 -5 16 4 5 -1 9 -10 9 -8 0 -20 -12 -25 -26z m29 -20 c-6 -8 -8 -14 -4
-14 4 0 2 -6 -4 -14 -7 -8 -20 -13 -29 -11 -9 2 -19 4 -21 4 -3 1 7 14 22 29
15 16 24 32 20 37 -5 5 0 3 10 -4 13 -11 15 -17 6 -27z"/>
<path d="M1051 2816 c-21 -22 -21 -24 -5 -22 11 2 19 7 19 12 0 5 4 15 8 22
13 20 2 14 -22 -12z"/>
<path d="M875 2779 c-3 -4 2 -6 10 -5 21 3 28 13 10 13 -9 0 -18 -4 -20 -8z"/>
<path d="M3013 2727 c0 -8 6 -14 14 -14 9 0 10 4 2 14 -6 7 -12 13 -14 13 -1
0 -2 -6 -2 -13z"/>
<path d="M756 2693 c-6 -14 -5 -15 5 -6 7 7 10 15 7 18 -3 3 -9 -2 -12 -12z"/>
<path d="M930 2679 c0 -5 5 -7 10 -4 6 3 10 8 10 11 0 2 -4 4 -10 4 -5 0 -10
-5 -10 -11z"/>
<path d="M3030 2679 c0 -5 5 -7 10 -4 6 3 10 8 10 11 0 2 -4 4 -10 4 -5 0 -10
-5 -10 -11z"/>
<path d="M854 2656 c1 -8 5 -18 8 -22 4 -3 5 1 4 10 -1 8 -5 18 -8 22 -4 3 -5
-1 -4 -10z"/>
<path d="M3114 2576 c1 -8 5 -18 8 -22 4 -3 5 1 4 10 -1 8 -5 18 -8 22 -4 3
-5 -1 -4 -10z"/>
<path d="M855 2569 c-4 -6 -5 -12 -2 -15 2 -3 7 2 10 11 7 17 1 20 -8 4z"/>
<path d="M773 2536 c-3 -6 -3 -8 2 -4 4 4 13 3 20 -2 8 -7 12 -5 12 3 0 16
-25 18 -34 3z"/>
<path d="M3113 2525 c0 -8 4 -12 9 -9 5 3 6 10 3 15 -9 13 -12 11 -12 -6z"/>
<path d="M739 2528 c-5 -18 -6 -38 -1 -34 7 8 12 36 6 36 -2 0 -4 -1 -5 -2z"/>
<path d="M774 2502 c4 -3 14 -7 22 -8 9 -1 13 0 10 4 -4 3 -14 7 -22 8 -9 1
-13 0 -10 -4z"/>
<path d="M3101 2483 c7 -12 15 -20 18 -17 3 2 -3 12 -13 22 -17 16 -18 16 -5
-5z"/>
<path d="M699 2468 c-5 -18 -6 -38 -1 -34 7 8 12 36 6 36 -2 0 -4 -1 -5 -2z"/>
<path d="M776 2462 c-3 -5 1 -9 9 -9 8 0 12 4 9 9 -3 4 -7 8 -9 8 -2 0 -6 -4
-9 -8z"/>
<path d="M3250 2440 c0 -16 5 -30 10 -30 6 0 10 -9 10 -20 0 -11 5 -20 11 -20
8 0 8 -4 0 -14 -10 -11 -9 -16 4 -24 9 -5 18 -21 18 -35 1 -15 5 -27 9 -27 3
0 5 -11 3 -25 -1 -14 2 -25 6 -25 5 0 9 -11 9 -25 0 -14 4 -25 8 -25 5 0 8
-22 8 -50 -1 -27 1 -50 4 -50 11 0 34 20 24 20 -6 0 -10 17 -9 40 1 22 -1 40
-5 40 -4 0 -7 6 -8 13 0 6 -3 21 -6 32 -18 65 -23 95 -17 101 3 4 0 4 -6 0 -8
-4 -13 -1 -13 8 0 8 -4 25 -9 38 -5 13 -9 27 -9 32 0 5 -5 12 -11 15 -6 4 -12
19 -13 34 -3 37 -18 34 -18 -3z"/>
<path d="M3175 2440 c-3 -5 -1 -10 4 -10 6 0 11 5 11 10 0 6 -2 10 -4 10 -3 0
-8 -4 -11 -10z"/>
<path d="M3309 2423 c-13 -16 -12 -17 4 -4 9 7 17 15 17 17 0 8 -8 3 -21 -13z"/>
<path d="M646 2418 c3 -5 10 -6 15 -3 13 9 11 12 -6 12 -8 0 -12 -4 -9 -9z"/>
<path d="M3189 2403 c-13 -16 -12 -17 4 -4 16 13 21 21 13 21 -2 0 -10 -8 -17
-17z"/>
<path d="M710 2400 c0 -5 5 -10 11 -10 5 0 7 5 4 10 -3 6 -8 10 -11 10 -2 0
-4 -4 -4 -10z"/>
<path d="M3155 2361 c-3 -5 -2 -12 3 -15 5 -3 9 1 9 9 0 17 -3 19 -12 6z"/>
<path d="M655 2340 c-3 -5 -1 -10 4 -10 6 0 11 5 11 10 0 6 -2 10 -4 10 -3 0
-8 -4 -11 -10z"/>
<path d="M746 2338 c3 -5 10 -6 15 -3 13 9 11 12 -6 12 -8 0 -12 -4 -9 -9z"/>
<path d="M3136 2337 c3 -10 9 -15 12 -12 3 3 0 11 -7 18 -10 9 -11 8 -5 -6z"/>
<path d="M3186 2338 c3 -5 10 -6 15 -3 13 9 11 12 -6 12 -8 0 -12 -4 -9 -9z"/>
<path d="M610 2319 c0 -5 5 -7 10 -4 6 3 10 8 10 11 0 2 -4 4 -10 4 -5 0 -10
-5 -10 -11z"/>
<path d="M3160 2314 c0 -9 -5 -12 -12 -8 -10 6 -10 4 0 -8 7 -8 10 -22 6 -31
-3 -8 -1 -17 4 -20 4 -4 9 14 9 39 1 24 -1 44 -3 44 -2 0 -4 -7 -4 -16z"/>
<path d="M746 2303 c-6 -14 -5 -15 5 -6 7 7 10 15 7 18 -3 3 -9 -2 -12 -12z"/>
<path d="M681 2276 c-9 -11 -9 -16 1 -22 7 -4 10 -4 6 1 -4 4 -3 14 3 22 6 7
9 13 6 13 -2 0 -10 -6 -16 -14z"/>
<path d="M3256 2273 c-6 -14 -5 -15 5 -6 7 7 10 15 7 18 -3 3 -9 -2 -12 -12z"/>
<path d="M573 2265 c0 -8 4 -12 9 -9 5 3 6 10 3 15 -9 13 -12 11 -12 -6z"/>
<path d="M703 2257 c-3 -6 -1 -7 5 -3 5 3 12 1 14 -6 3 -8 6 -7 10 3 7 17 -19
22 -29 6z"/>
<path d="M3235 2231 c-3 -5 -2 -12 3 -15 5 -3 9 1 9 9 0 17 -3 19 -12 6z"/>
<path d="M636 2218 c3 -5 10 -6 15 -3 13 9 11 12 -6 12 -8 0 -12 -4 -9 -9z"/>
<path d="M679 2228 c-6 -21 -5 -38 1 -38 5 0 8 9 7 20 -1 17 -5 26 -8 18z"/>
<path d="M630 2196 c0 -2 8 -10 18 -17 15 -13 16 -12 3 4 -13 16 -21 21 -21
13z"/>
<path d="M555 2179 c-3 -4 2 -6 10 -5 21 3 28 13 10 13 -9 0 -18 -4 -20 -8z"/>
<path d="M3255 2171 c-3 -5 -2 -12 3 -15 5 -3 9 1 9 9 0 17 -3 19 -12 6z"/>
<path d="M684 2154 c-18 -14 -18 -15 4 -4 12 6 22 13 22 15 0 8 -5 6 -26 -11z"/>
<path d="M575 2140 c-3 -5 -1 -10 4 -10 6 0 11 5 11 10 0 6 -2 10 -4 10 -3 0
-8 -4 -11 -10z"/>
<path d="M634 2120 c0 -13 4 -16 10 -10 7 7 7 13 0 20 -6 6 -10 3 -10 -10z"/>
<path d="M3256 2127 c3 -10 9 -15 12 -12 3 3 0 11 -7 18 -10 9 -11 8 -5 -6z"/>
<path d="M514 2102 c4 -3 14 -7 22 -8 9 -1 13 0 10 4 -4 3 -14 7 -22 8 -9 1
-13 0 -10 -4z"/>
<path d="M675 2080 c-3 -5 -2 -10 4 -10 5 0 13 5 16 10 3 6 2 10 -4 10 -5 0
-13 -4 -16 -10z"/>
<path d="M3246 2078 c3 -5 10 -6 15 -3 13 9 11 12 -6 12 -8 0 -12 -4 -9 -9z"/>
<path d="M486 2058 c3 -5 10 -6 15 -3 13 9 11 12 -6 12 -8 0 -12 -4 -9 -9z"/>
<path d="M695 2059 c-4 -6 -5 -12 -2 -15 2 -3 7 2 10 11 7 17 1 20 -8 4z"/>
<path d="M3359 2068 c-6 -14 -4 -87 3 -100 5 -10 4 -19 -2 -23 -8 -5 -8 -11 0
-20 8 -10 7 -14 -2 -18 -11 -4 -10 -6 0 -6 8 -1 10 -6 5 -13 -11 -18 -10 -32
1 -40 6 -4 5 -13 -3 -22 -8 -9 -10 -16 -6 -16 5 0 0 -9 -11 -21 -12 -13 -14
-19 -5 -17 8 2 14 -6 16 -19 1 -13 -4 -23 -10 -23 -7 0 -19 -8 -26 -17 -13
-16 -12 -17 4 -4 23 18 33 7 19 -23 -8 -19 -8 -26 1 -30 9 -3 9 -5 0 -5 -7 -1
-13 -8 -13 -17 0 -24 -43 -169 -51 -172 -5 -2 -5 -10 -2 -18 3 -8 1 -14 -4
-14 -5 0 -10 -6 -10 -12 0 -7 -2 -17 -4 -23 -2 -5 1 -11 6 -13 6 -1 11 6 13
18 2 11 8 17 14 14 6 -4 8 -2 4 4 -8 14 12 65 23 57 5 -3 13 -1 16 5 4 6 3 9
-2 8 -9 -3 -13 5 -13 28 0 9 5 12 13 8 9 -6 9 -4 -1 8 -8 10 -9 17 -2 20 5 1
13 23 16 48 3 25 9 52 13 60 4 8 9 33 10 55 1 21 6 44 11 50 6 7 7 15 3 19
-11 10 -12 36 -2 36 5 0 4 11 -1 25 -6 15 -6 27 0 30 6 3 6 15 0 30 -6 15 -6
27 0 30 7 4 7 13 0 24 -6 12 -5 22 2 29 8 8 8 15 -2 27 -7 8 -10 24 -7 35 3
11 1 20 -4 20 -5 0 -9 -1 -10 -2z m16 -288 c3 -6 -1 -7 -9 -4 -18 7 -21 14 -7
14 6 0 13 -4 16 -10z"/>
<path d="M610 2057 c0 -2 6 -10 14 -16 11 -9 16 -9 22 1 4 7 4 10 -1 6 -4 -4
-14 -3 -22 3 -7 6 -13 9 -13 6z"/>
<path d="M660 2055 c0 -5 5 -17 10 -25 5 -8 10 -10 10 -5 0 6 -5 17 -10 25 -5
8 -10 11 -10 5z"/>
<path d="M3225 2052 c-6 -4 -12 -27 -13 -52 -3 -64 -4 -70 -14 -64 -5 3 -5 11
-2 17 5 9 4 9 -5 1 -12 -11 -5 -44 9 -44 5 0 12 9 15 20 4 11 11 17 17 14 7
-4 8 -2 4 4 -4 7 -1 12 6 12 10 0 10 2 -1 9 -9 6 -12 22 -9 50 2 22 3 41 3 41
0 0 -5 -4 -10 -8z"/>
<path d="M3270 2046 c0 -2 7 -7 16 -10 8 -3 12 -2 9 4 -6 10 -25 14 -25 6z"/>
<path d="M3165 2001 c1 -8 7 -17 13 -19 8 -2 3 -11 -10 -23 -29 -24 -14 -25
17 -1 21 17 22 19 7 30 -10 6 -12 11 -5 9 6 -1 10 2 10 8 -1 5 -9 10 -18 10
-10 1 -16 -5 -14 -14z"/>
<path d="M550 1999 c0 -5 5 -7 10 -4 6 3 10 8 10 11 0 2 -4 4 -10 4 -5 0 -10
-5 -10 -11z"/>
<path d="M652 2005 c3 -3 16 -8 28 -10 12 -2 20 -1 16 2 -4 4 -16 8 -28 10
-12 2 -19 1 -16 -2z"/>
<path d="M596 1981 c-3 -5 2 -15 12 -22 15 -12 16 -12 5 2 -7 9 -10 19 -6 22
3 4 4 7 0 7 -3 0 -8 -4 -11 -9z"/>
<path d="M630 1975 c5 -7 9 -14 7 -16 -1 -2 3 1 9 8 6 7 14 11 17 8 4 -3 5 -2
2 2 -3 4 -14 7 -25 8 -14 1 -17 -2 -10 -10z"/>
<path d="M677 1966 c-3 -8 0 -17 7 -19 10 -4 12 1 9 14 -6 23 -9 24 -16 5z"/>
<path d="M656 1922 c1 -25 34 -47 34 -23 0 6 -6 8 -14 5 -11 -4 -13 0 -9 14 2
11 1 22 -4 25 -5 3 -8 -7 -7 -21z"/>
<path d="M611 1924 c0 -11 3 -14 6 -6 3 7 2 16 -1 19 -3 4 -6 -2 -5 -13z"/>
<path d="M495 1900 c3 -5 8 -10 11 -10 2 0 4 5 4 10 0 6 -5 10 -11 10 -5 0 -7
-4 -4 -10z"/>
<path d="M3253 1885 c0 -8 4 -15 9 -15 4 0 8 4 8 9 0 6 -4 12 -8 15 -5 3 -9
-1 -9 -9z"/>
<path d="M576 1878 c3 -4 11 -5 19 -1 21 7 19 12 -4 10 -11 0 -18 -5 -15 -9z"/>
<path d="M632 1874 c-7 -8 -8 -14 -3 -14 10 0 25 19 20 25 -2 1 -10 -3 -17
-11z"/>
<path d="M659 1868 c-11 -40 1 -73 17 -47 5 8 3 9 -5 5 -8 -6 -11 -2 -9 10 2
11 10 22 18 26 12 5 12 7 -2 7 -10 1 -18 0 -19 -1z"/>
<path d="M519 1833 c-13 -16 -12 -17 4 -4 9 7 17 15 17 17 0 8 -8 3 -21 -13z"/>
<path d="M593 1832 c-9 -15 -8 -19 3 -19 7 0 10 5 7 10 -4 7 1 8 12 3 15 -5
16 -4 5 9 -15 18 -13 19 -27 -3z"/>
<path d="M633 1790 c1 -11 5 -20 9 -20 3 0 6 9 5 20 -1 11 -5 20 -9 20 -3 0
-6 -9 -5 -20z"/>
<path d="M580 1760 c-9 -6 -10 -10 -3 -10 6 0 15 5 18 10 8 12 4 12 -15 0z"/>
<path d="M660 1766 c0 -2 7 -7 16 -10 8 -3 12 -2 9 4 -6 10 -25 14 -25 6z"/>
<path d="M490 1740 c0 -5 5 -10 11 -10 5 0 7 5 4 10 -3 6 -8 10 -11 10 -2 0
-4 -4 -4 -10z"/>
<path d="M654 1735 c-8 -20 3 -48 16 -40 5 3 10 2 10 -4 0 -5 -5 -12 -10 -14
-6 -3 -5 -4 2 -3 7 2 13 9 13 17 0 8 -6 13 -12 12 -7 -2 -13 7 -13 18 0 19 2
20 18 8 15 -13 16 -12 3 4 -16 21 -20 21 -27 2z"/>
<path d="M596 1719 c3 -5 9 -7 14 -4 4 3 11 0 13 -5 3 -6 4 -5 3 1 -1 7 -10
13 -19 15 -9 1 -15 -2 -11 -7z"/>
<path d="M3230 1720 c0 -4 7 -7 15 -6 23 3 26 12 5 13 -11 1 -20 -2 -20 -7z"/>
<path d="M490 1700 c0 -5 5 -10 11 -10 5 0 7 5 4 10 -3 6 -8 10 -11 10 -2 0
-4 -4 -4 -10z"/>
<path d="M3255 1690 c-4 -6 -10 -8 -15 -5 -4 3 -7 -2 -6 -10 1 -8 4 -16 7 -17
2 -2 3 -1 1 1 -1 2 5 13 15 23 9 10 13 18 10 18 -3 0 -9 -5 -12 -10z"/>
<path d="M600 1676 c0 -2 7 -7 16 -10 8 -3 12 -2 9 4 -6 10 -25 14 -25 6z"/>
<path d="M3273 1665 c0 -8 4 -12 9 -9 5 3 6 10 3 15 -9 13 -12 11 -12 -6z"/>
<path d="M550 1666 c0 -2 7 -7 16 -10 8 -3 12 -2 9 4 -6 10 -25 14 -25 6z"/>
<path d="M636 1654 c-8 -20 -8 -24 2 -24 4 0 8 9 9 20 2 24 -3 26 -11 4z"/>
<path d="M660 1646 c0 -2 7 -6 15 -10 8 -3 15 -1 15 4 0 6 -7 10 -15 10 -8 0
-15 -2 -15 -4z"/>
<path d="M495 1620 c3 -5 8 -10 11 -10 2 0 4 5 4 10 0 6 -5 10 -11 10 -5 0 -7
-4 -4 -10z"/>
<path d="M659 1628 c0 -2 -2 -13 -5 -26 -3 -19 -2 -21 10 -10 8 7 10 15 5 16
-5 2 -7 8 -3 13 3 5 3 9 0 9 -3 0 -6 -1 -7 -2z"/>
<path d="M519 1593 c-13 -16 -12 -17 4 -4 9 7 17 15 17 17 0 8 -8 3 -21 -13z"/>
<path d="M570 1606 c0 -2 7 -7 16 -10 8 -3 12 -2 9 4 -6 10 -25 14 -25 6z"/>
<path d="M670 1580 c0 -6 7 -10 15 -10 8 0 15 2 15 4 0 2 -7 6 -15 10 -8 3
-15 1 -15 -4z"/>
<path d="M630 1560 c0 -6 4 -9 9 -6 5 4 12 1 14 -4 3 -6 4 -5 3 2 -3 15 -26
23 -26 8z"/>
<path d="M670 1540 c0 -5 7 -7 15 -4 8 4 15 8 15 10 0 2 -7 4 -15 4 -8 0 -15
-4 -15 -10z"/>
<path d="M570 1520 c0 -5 5 -10 10 -10 6 0 10 5 10 10 0 6 -4 10 -10 10 -5 0
-10 -4 -10 -10z"/>
<path d="M643 1518 c-11 -13 -11 -73 -1 -84 3 -3 5 12 3 33 -1 21 2 44 7 51 6
6 8 12 5 12 -2 0 -9 -6 -14 -12z"/>
<path d="M3195 1513 c1 -10 -5 -27 -14 -38 -14 -17 -14 -18 0 -7 9 6 18 10 21
7 3 -3 4 6 4 19 -1 14 -5 28 -8 31 -4 4 -5 -1 -3 -12z"/>
<path d="M660 1481 c0 -6 5 -11 11 -11 5 0 7 -4 4 -10 -3 -5 0 -7 7 -5 9 4 14
-2 14 -15 0 -14 -5 -19 -16 -15 -11 5 -12 3 -3 -6 15 -15 34 -3 26 18 -4 11
-3 14 5 9 25 -15 11 4 -18 24 -16 12 -30 17 -30 11z"/>
<path d="M691 1487 c2 -1 13 -9 24 -17 19 -14 19 -14 6 3 -7 9 -18 17 -24 17
-6 0 -8 -1 -6 -3z"/>
<path d="M726 1433 c-6 -14 -5 -15 5 -6 7 7 10 15 7 18 -3 3 -9 -2 -12 -12z"/>
<path d="M3210 1441 c0 -6 4 -12 8 -15 5 -3 9 1 9 9 0 8 -4 15 -9 15 -4 0 -8
-4 -8 -9z"/>
<path d="M556 1422 c-3 -5 1 -9 9 -9 8 0 12 4 9 9 -3 4 -7 8 -9 8 -2 0 -6 -4
-9 -8z"/>
<path d="M3150 1426 c0 -2 7 -7 16 -10 8 -3 12 -2 9 4 -6 10 -25 14 -25 6z"/>
<path d="M604 1398 c-12 -14 -13 -18 -3 -10 9 6 18 10 21 7 2 -3 5 2 5 10 0
19 0 19 -23 -7z"/>
<path d="M657 1396 c-4 -10 1 -12 14 -9 23 6 24 9 5 16 -8 3 -17 0 -19 -7z"/>
<path d="M3180 1386 c0 -2 8 -10 18 -17 15 -13 16 -12 3 4 -13 16 -21 21 -21
13z"/>
<path d="M615 1370 c-4 -6 -10 -8 -14 -6 -4 3 -8 -1 -8 -9 0 -10 4 -12 12 -5
7 5 14 8 17 5 2 -3 5 2 5 10 0 18 -3 19 -12 5z"/>
<path d="M3136 1367 c3 -10 9 -15 12 -12 3 3 0 11 -7 18 -10 9 -11 8 -5 -6z"/>
<path d="M3239 1380 c-3 -22 -8 -41 -14 -60 -5 -16 -3 -21 6 -18 19 6 34 57
20 71 -6 6 -11 9 -12 7z"/>
<path d="M3109 1343 c-13 -16 -12 -17 4 -4 9 7 17 15 17 17 0 8 -8 3 -21 -13z"/>
<path d="M609 1323 c-13 -16 -12 -17 4 -4 9 7 17 15 17 17 0 8 -8 3 -21 -13z"/>
<path d="M654 1320 c0 -13 5 -16 16 -11 8 5 22 6 30 3 8 -2 12 -2 8 2 -3 4
-12 8 -20 10 -7 1 -18 4 -23 8 -6 4 -11 -2 -11 -12z"/>
<path d="M3129 1323 c-13 -16 -12 -17 4 -4 16 13 21 21 13 21 -2 0 -10 -8 -17
-17z"/>
<path d="M3151 1307 c-8 -10 -7 -14 2 -14 8 0 14 6 14 14 0 7 -1 13 -2 13 -2
0 -8 -6 -14 -13z"/>
<path d="M3201 1304 c2 -5 -1 -20 -5 -33 -7 -19 -10 -21 -18 -10 -8 11 -9 10
-4 -4 5 -17 -33 -84 -57 -99 -7 -4 -8 -8 -4 -8 5 0 2 -6 -5 -14 -7 -8 -24 -28
-37 -46 -15 -19 -30 -29 -39 -25 -12 4 -12 2 -4 -8 16 -19 3 -30 -17 -14 -14
10 -14 10 -4 -4 11 -13 8 -20 -16 -42 -22 -19 -32 -23 -42 -14 -11 10 -11 9
-1 -4 9 -13 7 -20 -13 -37 -23 -20 -30 -20 -26 1 1 5 -3 6 -9 2 -6 -3 -8 -11
-4 -16 3 -6 -8 -23 -25 -40 -35 -33 -38 -34 -44 -16 -2 6 -3 4 -1 -6 1 -11 -9
-23 -27 -32 -27 -14 -33 -13 -30 7 0 4 -7 4 -16 1 -11 -4 -14 -3 -9 5 4 7 2
12 -3 12 -18 0 -12 -19 9 -30 11 -6 18 -15 15 -21 -4 -5 -11 -6 -17 -3 -6 4
-8 -1 -6 -11 1 -10 11 -19 20 -21 11 -1 15 3 11 12 -3 8 1 14 11 14 9 0 16 5
16 10 0 6 6 10 14 8 8 -2 27 11 43 27 41 42 105 95 115 95 4 0 7 4 5 9 -3 12
43 51 62 52 11 0 12 2 3 6 -9 3 -7 11 8 26 50 55 80 94 86 110 3 11 12 16 20
13 9 -3 12 -1 9 4 -3 5 10 37 29 69 30 52 33 61 20 72 -8 7 -14 8 -13 3z"/>
<path d="M712 1295 c4 -4 3 -17 -3 -28 -7 -12 -7 -17 -1 -13 6 3 13 0 15 -6 4
-10 6 -10 6 0 1 7 6 10 13 6 7 -4 8 -3 4 5 -4 6 -12 8 -18 5 -7 -5 -9 -1 -5 9
3 9 1 19 -6 23 -7 4 -9 4 -5 -1z"/>
<path d="M775 1290 c-3 -5 -1 -18 4 -27 6 -10 11 -13 11 -8 0 6 10 -1 21 -15
19 -24 20 -24 9 -2 -6 13 -18 26 -26 29 -8 3 -14 9 -14 15 0 5 5 6 12 2 7 -4
8 -3 4 4 -9 15 -13 15 -21 2z"/>
<path d="M756 1245 c-3 -8 -1 -15 4 -15 6 0 10 7 10 15 0 8 -2 15 -4 15 -2 0
-6 -7 -10 -15z"/>
<path d="M3054 1239 c0 -13 3 -15 13 -7 7 6 13 12 13 13 0 2 -6 5 -13 8 -7 3
-13 -3 -13 -14z"/>
<path d="M3130 1256 c0 -2 8 -10 18 -17 15 -13 16 -12 3 4 -13 16 -21 21 -21
13z"/>
<path d="M671 1227 c-13 -21 -12 -21 5 -5 10 10 16 20 13 22 -3 3 -11 -5 -18
-17z"/>
<path d="M3110 1243 c0 -6 8 -17 18 -24 16 -13 16 -13 2 6 -8 11 -16 22 -17
24 -2 2 -3 0 -3 -6z"/>
<path d="M635 1231 c-3 -5 -2 -12 3 -15 5 -3 9 1 9 9 0 17 -3 19 -12 6z"/>
<path d="M780 1225 c-7 -9 -10 -18 -6 -22 3 -3 6 -1 6 5 0 6 7 9 15 6 8 -4 15
-10 15 -16 0 -5 -4 -6 -10 -3 -6 4 -7 -1 -3 -11 5 -15 7 -15 16 2 7 13 6 20
-6 29 -9 7 -14 15 -10 18 3 4 4 7 1 7 -3 0 -11 -7 -18 -15z"/>
<path d="M706 1217 c3 -10 9 -15 12 -12 3 3 0 11 -7 18 -10 9 -11 8 -5 -6z"/>
<path d="M3215 1221 c-3 -5 -2 -12 3 -15 5 -3 9 1 9 9 0 17 -3 19 -12 6z"/>
<path d="M3102 1204 c10 -10 20 -16 22 -13 3 3 -5 11 -17 18 -21 13 -21 12 -5
-5z"/>
<path d="M2995 1200 c-3 -5 -1 -10 4 -10 6 0 11 5 11 10 0 6 -2 10 -4 10 -3 0
-8 -4 -11 -10z"/>
<path d="M3040 1206 c0 -2 8 -10 18 -17 15 -13 16 -12 3 4 -13 16 -21 21 -21
13z"/>
<path d="M754 1190 c1 -7 5 -11 10 -10 5 1 16 -10 25 -24 16 -24 17 -25 29 -5
7 11 16 18 20 15 4 -2 8 4 8 15 0 16 -3 15 -22 -8 l-21 -27 -12 22 c-7 13 -16
20 -21 17 -4 -3 -11 0 -13 5 -4 7 -5 6 -3 0z"/>
<path d="M2974 1169 c0 -10 4 -19 8 -19 4 0 8 6 8 14 0 8 -4 17 -8 20 -4 2 -8
-4 -8 -15z"/>
<path d="M698 1168 c8 -9 10 -23 6 -29 -5 -8 -3 -9 6 -4 10 6 12 4 7 -8 -3 -9
1 -21 11 -28 14 -11 15 -11 5 1 -9 9 -9 19 -2 33 9 15 8 18 -2 12 -9 -6 -10
-3 -5 11 4 10 4 15 0 11 -4 -4 -14 -1 -23 6 -14 10 -14 10 -3 -5z"/>
<path d="M3015 1171 c6 -6 19 -12 30 -14 11 -1 27 -7 35 -12 13 -8 13 -7 1 8
-8 10 -16 15 -18 13 -3 -3 -17 0 -32 5 -18 7 -23 7 -16 0z"/>
<path d="M751 1153 c7 -12 15 -20 18 -17 3 2 -3 12 -13 22 -17 16 -18 16 -5
-5z"/>
<path d="M860 1160 c0 -5 -8 -10 -17 -10 -17 -1 -17 -1 0 -11 9 -6 14 -16 11
-22 -4 -7 -4 -9 1 -5 4 4 14 1 22 -7 8 -8 20 -15 26 -15 7 0 4 5 -6 11 -9 6
-15 15 -11 20 3 5 0 8 -8 7 -8 -2 -12 5 -11 20 2 12 1 22 -2 22 -3 0 -5 -4 -5
-10z"/>
<path d="M2945 1149 c-4 -6 -5 -12 -2 -15 2 -3 7 2 10 11 7 17 1 20 -8 4z"/>
<path d="M780 1134 c0 -5 7 -18 15 -28 8 -11 15 -16 15 -10 0 5 -7 18 -15 28
-8 11 -15 16 -15 10z"/>
<path d="M2980 1136 c0 -2 7 -7 16 -10 8 -3 12 -2 9 4 -6 10 -25 14 -25 6z"/>
<path d="M3050 1136 c0 -2 8 -10 18 -17 15 -13 16 -12 3 4 -13 16 -21 21 -21
13z"/>
<path d="M820 1120 c0 -5 5 -10 10 -10 6 0 10 5 10 10 0 6 -4 10 -10 10 -5 0
-10 -4 -10 -10z"/>
<path d="M3031 1113 c7 -12 15 -20 18 -17 3 2 -3 12 -13 22 -17 16 -18 16 -5
-5z"/>
<path d="M2950 1109 c0 -5 5 -7 10 -4 6 3 10 8 10 11 0 2 -4 4 -10 4 -5 0 -10
-5 -10 -11z"/>
<path d="M755 1101 c-3 -5 -2 -12 3 -15 5 -3 9 1 9 9 0 17 -3 19 -12 6z"/>
<path d="M2996 1094 c-9 -8 -16 -20 -16 -26 0 -6 1 -9 3 -7 1 2 11 14 21 27
22 25 16 30 -8 6z"/>
<path d="M780 1091 c0 -10 19 -25 25 -20 1 2 -3 10 -11 17 -8 7 -14 8 -14 3z"/>
<path d="M832 1091 c-11 -7 -10 -9 3 -14 9 -4 14 -3 10 2 -3 5 1 12 7 14 7 3
9 6 3 6 -5 0 -16 -3 -23 -8z"/>
<path d="M862 1069 c-7 -11 -8 -19 -2 -19 5 0 10 5 10 11 0 6 13 8 31 5 27 -4
40 -1 14 4 -5 1 -17 6 -26 10 -10 6 -19 3 -27 -11z"/>
<path d="M2940 1080 c8 -5 20 -10 25 -10 6 0 3 5 -5 10 -8 5 -19 10 -25 10 -5
0 -3 -5 5 -10z"/>
<path d="M2908 1073 c6 -2 10 -9 7 -14 -4 -5 1 -6 10 -2 13 5 14 7 3 14 -7 5
-17 8 -23 8 -5 0 -4 -3 3 -6z"/>
<path d="M646 1058 c3 -5 10 -6 15 -3 13 9 11 12 -6 12 -8 0 -12 -4 -9 -9z"/>
<path d="M816 1062 c-2 -4 -1 -14 3 -21 6 -9 11 -10 15 -2 4 6 2 11 -4 11 -6
0 -8 5 -5 10 3 6 4 10 1 10 -3 0 -7 -4 -10 -8z"/>
<path d="M886 1035 c4 -8 2 -15 -4 -15 -6 0 -13 6 -15 13 -4 9 -6 9 -6 -1 -1
-7 -6 -10 -13 -6 -6 4 -8 3 -5 -3 11 -17 51 -10 55 10 2 9 -1 17 -7 17 -6 0
-8 -7 -5 -15z"/>
<path d="M3075 1040 c-3 -5 -1 -10 4 -10 6 0 11 5 11 10 0 6 -2 10 -4 10 -3 0
-8 -4 -11 -10z"/>
<path d="M3113 1035 c0 -8 4 -12 9 -9 5 3 6 10 3 15 -9 13 -12 11 -12 -6z"/>
<path d="M2965 1010 c-16 -7 -17 -9 -3 -9 9 -1 20 4 23 9 7 11 7 11 -20 0z"/>
<path d="M837 999 c7 -7 15 -10 18 -7 3 3 -2 9 -12 12 -14 6 -15 5 -6 -5z"/>
<path d="M894 999 c-3 -6 -1 -16 6 -22 10 -9 12 -8 7 6 -8 21 21 24 29 2 4 -8
10 -12 16 -9 10 7 -20 33 -39 34 -6 0 -15 -5 -19 -11z"/>
<path d="M2920 995 c-7 -9 -11 -17 -9 -20 3 -2 10 5 17 15 14 24 10 26 -8 5z"/>
<path d="M870 981 c0 -6 4 -13 10 -16 6 -3 7 1 4 9 -7 18 -14 21 -14 7z"/>
<path d="M921 964 c0 -11 3 -14 6 -6 3 7 2 16 -1 19 -3 4 -6 -2 -5 -13z"/>
<path d="M2882 964 c-7 -8 -8 -14 -3 -14 10 0 25 19 20 25 -2 1 -10 -3 -17
-11z"/>
<path d="M2999 953 c-13 -16 -12 -17 4 -4 16 13 21 21 13 21 -2 0 -10 -8 -17
-17z"/>
<path d="M900 950 c0 -5 -7 -7 -15 -4 -8 4 -15 2 -15 -4 0 -14 33 -8 38 6 2 7
1 12 -2 12 -3 0 -6 -4 -6 -10z"/>
<path d="M2854 942 c3 -6 -2 -13 -11 -15 -16 -4 -16 -5 -1 -6 21 -1 32 15 17
25 -7 4 -9 3 -5 -4z"/>
<path d="M933 921 c0 -11 5 -19 10 -18 5 1 12 -4 14 -11 3 -8 -2 -10 -14 -6
-15 5 -15 4 -3 -5 26 -18 34 6 12 34 -18 23 -21 24 -19 6z"/>
<path d="M911 914 c0 -11 3 -14 6 -6 3 7 2 16 -1 19 -3 4 -6 -2 -5 -13z"/>
<path d="M835 881 c-3 -5 -2 -12 3 -15 5 -3 9 1 9 9 0 17 -3 19 -12 6z"/>
<path d="M2777 874 c-4 -4 -4 -11 -1 -15 7 -12 34 -11 34 1 0 5 -7 6 -17 3
-11 -4 -14 -3 -9 5 8 13 3 16 -7 6z"/>
<path d="M2914 856 c1 -8 5 -18 8 -22 4 -3 5 1 4 10 -1 8 -5 18 -8 22 -4 3 -5
-1 -4 -10z"/>
<path d="M856 822 c-3 -5 1 -9 9 -9 8 0 12 4 9 9 -3 4 -7 8 -9 8 -2 0 -6 -4
-9 -8z"/>
<path d="M1036 813 c-6 -14 -5 -15 5 -6 7 7 10 15 7 18 -3 3 -9 -2 -12 -12z"/>
<path d="M2670 800 c0 -11 2 -20 4 -20 2 0 6 9 9 20 3 11 1 20 -4 20 -5 0 -9
-9 -9 -20z"/>
<path d="M2850 780 c0 -5 5 -10 11 -10 5 0 7 5 4 10 -3 6 -8 10 -11 10 -2 0
-4 -4 -4 -10z"/>
<path d="M975 769 c-4 -6 -5 -12 -2 -15 2 -3 7 2 10 11 7 17 1 20 -8 4z"/>
<path d="M1233 758 c3 -9 1 -20 -5 -26 -6 -6 -2 -17 13 -31 15 -14 25 -17 30
-10 4 7 9 8 13 1 3 -6 1 -13 -4 -15 -6 -3 -5 -4 2 -2 7 1 12 8 11 14 -3 13 13
15 21 2 3 -5 -1 -15 -10 -22 -13 -11 -21 -10 -44 3 -27 15 -30 15 -50 -2 -13
-11 -17 -21 -10 -25 5 -3 10 -1 10 5 0 6 5 8 12 4 7 -5 8 -3 3 5 -6 10 -3 11
13 2 12 -6 24 -16 27 -21 3 -6 12 -10 18 -10 7 0 6 4 -3 10 -9 6 -10 10 -3 10
6 0 18 -8 25 -19 8 -11 22 -17 36 -15 14 3 21 0 17 -6 -3 -6 1 -7 9 -4 10 4
16 1 16 -9 0 -10 -7 -14 -22 -11 -21 4 -21 4 -3 -5 24 -10 35 -5 35 17 0 10 3
13 8 7 4 -6 14 -10 22 -10 8 1 20 -1 25 -4 6 -3 20 -6 32 -7 12 0 29 -7 38
-14 10 -8 15 -9 15 -2 0 6 7 9 16 5 12 -5 13 -7 2 -14 -9 -6 -6 -8 9 -6 12 0
19 5 17 9 -3 4 0 8 5 8 10 0 16 -22 12 -43 -1 -5 3 -5 9 -2 6 4 9 14 5 23 -3
9 -3 13 1 9 4 -4 14 -1 22 6 13 9 14 9 8 0 -4 -8 -2 -13 4 -13 6 0 8 -5 4 -12
-4 -7 -3 -8 4 -4 16 9 -1 49 -21 52 -10 1 -17 -2 -17 -7 0 -6 -6 -7 -12 -2
-14 8 -19 10 -43 12 -8 0 -15 5 -15 9 0 5 7 9 15 9 8 0 15 -5 15 -11 0 -6 5
-4 10 4 6 9 10 10 10 3 0 -14 40 -13 40 2 0 5 4 4 9 -3 4 -8 12 -14 17 -13 5
0 8 -9 6 -19 -2 -11 2 -20 9 -20 8 0 5 -8 -6 -20 -10 -11 -13 -20 -7 -20 7 0
12 6 12 13 0 8 4 7 10 -3 9 -13 10 -13 11 0 1 8 0 22 -1 29 -1 12 1 13 13 2
10 -8 17 -9 22 -1 4 7 12 7 26 0 21 -12 21 -13 24 16 2 22 -9 25 -32 11 -8 -5
-13 -3 -13 4 0 8 -4 8 -15 -1 -8 -7 -15 -9 -15 -5 0 4 -8 1 -17 -6 -16 -13
-17 -12 -4 3 7 10 17 15 22 12 5 -3 6 3 2 12 -4 11 -8 13 -11 6 -2 -7 -8 -12
-13 -12 -6 0 -8 4 -5 8 5 9 2 10 -50 14 -17 2 -39 10 -49 18 -22 18 -18 18
-38 2 -13 -11 -17 -10 -26 6 -7 13 -19 18 -36 17 -14 -2 -25 1 -25 6 0 6 -4 8
-9 5 -4 -3 -19 3 -31 14 -12 11 -26 18 -30 15 -4 -2 -15 4 -25 15 -14 16 -20
17 -27 8 -6 -10 -8 -10 -8 -1 0 21 -39 36 -57 22 -12 -11 -14 -10 -11 6 1 10
-3 20 -11 23 -9 3 -12 0 -8 -10z m57 -29 c0 -5 4 -8 9 -5 5 3 11 -1 15 -9 3
-8 11 -12 19 -9 8 3 20 -2 27 -10 7 -9 16 -14 20 -11 4 2 15 -4 25 -15 10 -11
24 -20 32 -20 7 0 13 -4 13 -10 0 -12 -22 -9 -33 5 -5 6 -6 -1 -3 -15 3 -14 3
-19 0 -12 -3 6 -10 10 -15 6 -13 -8 -11 10 4 25 10 11 8 11 -10 0 -12 -7 -19
-17 -16 -22 3 -5 -4 -4 -14 2 -11 6 -23 8 -25 5 -3 -2 -11 2 -18 10 -10 13 -9
19 4 31 18 18 21 30 7 20 -5 -3 -12 -1 -16 5 -3 5 -19 8 -34 5 -19 -3 -33 1
-42 12 -12 15 -12 16 3 10 10 -3 20 -2 23 3 8 13 25 13 25 -1z m200 -88 c0 7
7 3 16 -9 9 -13 20 -19 27 -15 18 11 36 12 42 3 3 -5 -4 -7 -15 -5 -12 2 -23
-2 -27 -10 -7 -19 -23 -19 -23 -1 0 8 -5 18 -12 22 -7 5 -9 2 -6 -8 4 -10 0
-14 -15 -12 -12 1 -28 3 -34 3 -7 1 -13 6 -13 11 0 6 3 9 8 9 21 -4 32 2 26
14 -5 8 -2 8 9 -2 14 -11 17 -11 17 0z"/>
<path d="M1266 722 c-3 -5 1 -9 9 -9 8 0 12 4 9 9 -3 4 -7 8 -9 8 -2 0 -6 -4
-9 -8z"/>
<path d="M1348 678 c-9 -21 8 -46 22 -32 7 7 6 16 -3 28 -12 16 -15 16 -19 4z"/>
<path d="M993 745 c0 -8 4 -12 9 -9 5 3 6 10 3 15 -9 13 -12 11 -12 -6z"/>
<path d="M931 727 c-13 -21 -12 -21 5 -5 10 10 16 20 13 22 -3 3 -11 -5 -18
-17z"/>
<path d="M2747 739 c7 -7 15 -10 18 -7 3 3 -2 9 -12 12 -14 6 -15 5 -6 -5z"/>
<path d="M2710 726 c0 -2 7 -7 16 -10 8 -3 12 -2 9 4 -6 10 -25 14 -25 6z"/>
<path d="M1055 691 c-3 -5 -2 -12 3 -15 5 -3 9 1 9 9 0 17 -3 19 -12 6z"/>
<path d="M2340 690 c0 -6 5 -20 10 -30 7 -13 7 -21 0 -25 -6 -4 -8 -11 -4 -16
3 -5 10 -7 15 -4 5 4 9 0 9 -7 1 -8 7 -5 16 7 8 11 22 20 31 20 18 0 25 26 12
46 -7 10 -11 11 -16 2 -12 -18 -70 -22 -58 -4 3 5 1 12 -5 16 -5 3 -10 1 -10
-5z m89 -23 c-42 -30 -57 -36 -63 -21 -3 8 -1 12 4 9 5 -3 18 -1 27 4 16 9 43
16 32 8z"/>
<path d="M2597 676 c-17 -13 -16 -14 6 -12 15 0 23 6 20 14 -6 14 -4 15 -26
-2z"/>
<path d="M2656 678 c3 -5 10 -6 15 -3 13 9 11 12 -6 12 -8 0 -12 -4 -9 -9z"/>
<path d="M2535 660 c-3 -5 -1 -10 4 -10 6 0 11 5 11 10 0 6 -2 10 -4 10 -3 0
-8 -4 -11 -10z"/>
<path d="M2695 660 c-3 -5 -1 -10 4 -10 6 0 11 5 11 10 0 6 -2 10 -4 10 -3 0
-8 -4 -11 -10z"/>
<path d="M2265 652 c-10 -7 -18 -32 -10 -32 2 0 9 9 15 20 12 22 11 24 -5 12z"/>
<path d="M2656 647 c3 -10 9 -15 12 -12 3 3 0 11 -7 18 -10 9 -11 8 -5 -6z"/>
<path d="M1190 626 c0 -2 7 -7 16 -10 8 -3 12 -2 9 4 -6 10 -25 14 -25 6z"/>
<path d="M2414 611 c10 -11 15 -25 11 -30 -3 -6 -4 -11 -1 -11 3 0 10 10 17
21 8 15 8 19 0 15 -6 -4 -11 -3 -11 2 0 6 -8 13 -17 16 -15 6 -15 5 1 -13z"/>
<path d="M1286 603 c-6 -14 -5 -15 5 -6 7 7 10 15 7 18 -3 3 -9 -2 -12 -12z"/>
<path d="M2491 611 c-8 -5 -16 -17 -17 -25 -1 -9 2 -14 7 -10 5 3 6 10 3 16
-5 7 -2 9 8 6 9 -4 15 0 15 8 0 8 -1 14 -1 14 -1 0 -7 -4 -15 -9z"/>
<path d="M2530 616 c0 -2 8 -10 18 -17 15 -13 16 -12 3 4 -13 16 -21 21 -21
13z"/>
<path d="M1246 602 c-3 -5 1 -9 9 -9 8 0 12 4 9 9 -3 4 -7 8 -9 8 -2 0 -6 -4
-9 -8z"/>
<path d="M2390 589 c0 -5 -6 -7 -12 -3 -7 4 -9 3 -5 -1 13 -15 34 -14 34 1 0
8 -4 14 -9 14 -4 0 -8 -5 -8 -11z"/>
<path d="M1305 580 c-3 -6 1 -7 9 -4 18 7 21 14 7 14 -6 0 -13 -4 -16 -10z"/>
<path d="M1410 571 c0 -7 -4 -9 -10 -6 -5 3 -10 1 -10 -4 0 -6 4 -11 9 -11 13
0 25 20 17 27 -3 4 -6 1 -6 -6z"/>
<path d="M1484 571 c4 -6 3 -18 -3 -25 -8 -9 -7 -13 2 -13 16 0 20 34 5 43 -7
4 -8 2 -4 -5z"/>
<path d="M1326 562 c-3 -5 1 -9 9 -9 8 0 15 4 15 9 0 4 -4 8 -9 8 -6 0 -12 -4
-15 -8z"/>
<path d="M1444 559 c-3 -6 -1 -16 5 -22 9 -9 10 -7 5 7 -5 13 -4 17 4 12 7 -4
12 -2 12 3 0 14 -17 14 -26 0z"/>
<path d="M2330 565 c0 -7 30 -13 34 -7 3 4 -4 9 -15 9 -10 1 -19 0 -19 -2z"/>
<path d="M1236 533 c-6 -14 -5 -15 5 -6 7 7 10 15 7 18 -3 3 -9 -2 -12 -12z"/>
<path d="M1359 533 c-13 -16 -12 -17 4 -4 16 13 21 21 13 21 -2 0 -10 -8 -17
-17z"/>
<path d="M1510 538 c0 -6 3 -8 7 -5 3 4 11 3 17 -2 6 -5 20 -5 31 0 18 9 18 9
-2 5 -13 -2 -26 0 -29 5 -8 13 -24 11 -24 -3z"/>
<path d="M2315 540 c-3 -6 1 -7 9 -4 18 7 21 14 7 14 -6 0 -13 -4 -16 -10z"/>
<path d="M1616 525 c-3 -8 -1 -15 4 -15 6 0 10 7 10 15 0 8 -2 15 -4 15 -2 0
-6 -7 -10 -15z"/>
<path d="M2270 529 c0 -5 5 -7 10 -4 6 3 10 8 10 11 0 2 -4 4 -10 4 -5 0 -10
-5 -10 -11z"/>
<path d="M1980 519 c0 -5 9 -9 20 -9 11 0 20 2 20 4 0 2 -9 6 -20 9 -11 3 -20
1 -20 -4z"/>
<path d="M2347 519 c7 -7 15 -10 18 -7 3 3 -2 9 -12 12 -14 6 -15 5 -6 -5z"/>
<path d="M2050 514 c0 -5 13 -17 28 -26 24 -14 29 -15 29 -3 0 8 -4 12 -9 9
-5 -3 -18 2 -29 12 -10 9 -19 13 -19 8z"/>
<path d="M1590 500 c14 -9 7 -14 -13 -11 -5 1 -6 -3 -2 -9 4 -6 13 -5 25 2 14
9 16 14 7 20 -7 4 -16 8 -22 8 -5 0 -3 -5 5 -10z"/>
<path d="M1695 501 c-3 -5 0 -13 6 -17 8 -5 9 -3 5 5 -6 8 -2 11 10 9 11 -2
22 -10 26 -18 6 -11 7 -10 5 4 -2 20 -42 33 -52 17z"/>
<path d="M2135 499 c-4 -6 -5 -12 -2 -15 2 -3 7 2 10 11 7 17 1 20 -8 4z"/>
<path d="M1971 484 c0 -11 3 -14 6 -6 3 7 2 16 -1 19 -3 4 -6 -2 -5 -13z"/>
<path d="M2175 490 c-4 -6 -11 -7 -17 -4 -7 4 -8 2 -4 -5 6 -9 11 -9 22 0 14
11 18 19 10 19 -3 0 -8 -5 -11 -10z"/>
<path d="M1776 474 c-3 -9 -2 -12 5 -9 5 4 17 1 26 -7 15 -12 15 -11 2 10 -16
26 -25 28 -33 6z"/>
<path d="M2047 479 c7 -7 15 -10 18 -7 3 3 -2 9 -12 12 -14 6 -15 5 -6 -5z"/>
<path d="M1830 469 c0 -5 5 -7 10 -4 6 3 10 8 10 11 0 2 -4 4 -10 4 -5 0 -10
-5 -10 -11z"/>
<path d="M1510 461 c0 -6 4 -13 10 -16 6 -3 7 1 4 9 -7 18 -14 21 -14 7z"/>
<path d="M1727 459 c7 -7 15 -10 18 -7 3 3 -2 9 -12 12 -14 6 -15 5 -6 -5z"/>
<path d="M1872 451 c7 -9 13 -18 15 -20 1 -2 1 5 0 16 0 11 -7 20 -14 20 -10
0 -10 -4 -1 -16z"/>
<path d="M2130 459 c0 -5 5 -7 10 -4 6 3 10 8 10 11 0 2 -4 4 -10 4 -5 0 -10
-5 -10 -11z"/>
<path d="M1653 445 c0 -8 4 -12 9 -9 5 3 6 10 3 15 -9 13 -12 11 -12 -6z"/>
<path d="M2075 449 c-4 -6 -5 -12 -2 -15 2 -3 7 2 10 11 7 17 1 20 -8 4z"/>
<path d="M1986 438 c3 -4 9 -8 15 -8 5 0 9 4 9 8 0 5 -7 9 -15 9 -8 0 -12 -4
-9 -9z"/>
<path d="M2195 441 c-3 -5 -2 -12 3 -15 5 -3 9 1 9 9 0 17 -3 19 -12 6z"/>
<path d="M1810 420 c0 -5 5 -10 11 -10 5 0 7 5 4 10 -3 6 -8 10 -11 10 -2 0
-4 -4 -4 -10z"/>
</g>
</svg>
